<svg xmlns="http://www.w3.org/2000/svg" viewBox="0 0 363 600" width="363" height="600"><defs></defs><g fill="#221d17"><path d="M0 0 C0.8 0 1.6 0 2.4 0 C2.8 0 2.8 0 4.9 0.1 C6.9 0.2 6.9 0.2 7.9 1.2 C7.9 2.9 8 4.6 7.9 6.3 C7.9 7.2 7.9 8.1 7.9 9.1 C7.9 9.4 7.9 9.4 7.9 11.2 C7.2 11.2 6.6 11.2 5.9 11.2 C5.9 12 5.9 12.8 5.9 13.6 C6 19.6 5.9 24.6 3.9 30.2 C3.2 30.2 2.6 30.2 1.9 30.2 C2.1 37.8 2.7 44 5.9 51 C6.9 53.4 7.4 55.7 7.9 58.2 C8.5 58.2 9.2 58.2 9.9 58.2 C9.9 58.9 9.9 59.6 9.9 60.2 C10.5 60.2 11.2 60.2 11.9 60.2 C11.9 62.2 11.9 64.2 11.9 66.2 C12.5 66.2 13.2 66.2 13.9 66.2 C14.6 67.8 14.6 67.8 15.2 69.9 C16.6 73.8 18.4 76.8 20.9 80.2 C22.5 83.1 23.1 84.9 22.9 88.2 C23.5 88.2 24.2 88.2 24.9 88.2 C24.9 89.6 24.9 90.9 24.9 92.2 C25.5 92.2 26.2 92.2 26.9 92.2 C26.9 93.6 26.9 94.9 26.9 96.2 C27.5 96.2 28.2 96.2 28.9 96.2 C29.1 97 29.4 97.7 29.7 98.5 C30.9 101.2 30.9 101.2 33.5 103.3 C35.9 105.2 35.9 105.2 36.2 107.5 C36.1 107.8 36.1 107.8 35.9 109.2 C36.5 109.2 37.2 109.2 37.9 109.2 C38.4 110.8 38.8 112.4 39.3 113.9 C39.6 114.8 39.8 115.7 40.1 116.6 C40.8 119.1 41.4 121.6 41.9 124.2 C42.5 124.2 43.2 124.2 43.9 124.2 C43.9 124.5 43.9 124.5 44 125.9 C44 126.2 44 126.2 44.2 128 C44.2 128.4 44.2 128.4 44.4 130.2 C45 132.7 46 133.5 47.9 135.2 C48.9 137.1 48.9 137.1 49.9 139.1 C51 141.5 52.1 143.6 53.6 145.9 C55.2 148.8 55.1 151 54.9 154.2 C55.5 154.2 56.2 154.2 56.9 154.2 C57.2 159.8 57.2 159.8 55.7 161.6 C53.2 162.5 51.5 162.6 48.9 162.2 C44.3 159.6 43 156.7 41.4 151.9 C40.9 150.2 40.9 150.2 39.9 149.2 C39.8 147.2 39.8 145.2 39.9 143.2 C39.2 143.2 38.6 143.2 37.9 143.2 C37.9 141.3 37.9 139.3 37.9 137.2 C37.2 137.2 36.6 137.2 35.9 137.2 C35.1 135.6 35.1 135.6 34.4 133.5 C31.6 125.6 31.6 125.6 28.9 124.2 C28.9 125.6 28.9 126.9 28.9 128.2 C29.5 128.2 30.2 128.2 30.9 128.2 C30.9 128.8 31 129.3 31 129.8 C31.4 133.8 31.9 136.7 33.9 140.2 C34.2 141.9 34.6 143.6 34.9 145.2 C36.6 151 36.6 151 37.9 152.2 C37.9 154.2 37.9 156.2 37.9 158.2 C38.5 158.2 39.2 158.2 39.9 158.2 C40.1 159.1 40.3 159.9 40.5 160.8 C40.8 161.9 41 163 41.3 164.2 C41.6 165.3 41.8 166.4 42.1 167.5 C42.9 170.2 42.9 170.2 43.9 171.2 C44.1 173.8 44.2 176.4 44.4 179 C44.6 183.5 44.8 187.8 45.9 192.2 C45.2 192.2 44.6 192.2 43.9 192.2 C43.9 192.9 43.9 193.6 43.9 194.2 C42.6 194.3 41.3 194.4 40.1 194.4 C39.4 194.5 38.6 194.5 37.9 194.5 C35.9 194.2 35.9 194.2 34.1 193 C32.4 190.6 32.6 189 32.7 186 C32.7 185.6 32.7 185.6 32.8 183.3 C32.8 182.6 32.8 181.9 32.9 181.2 C32.2 181.2 31.6 181.2 30.9 181.2 C30.8 180.7 30.7 180.1 30.7 179.5 C30.6 178.8 30.5 178 30.4 177.3 C30.4 176.6 30.3 175.8 30.2 175.1 C29.9 173.2 29.9 173.2 28.9 172.2 C28.8 170.9 28.8 169.5 28.8 168.2 C28.8 167.4 28.8 166.7 28.8 165.9 C28.8 165.7 28.8 165.7 28.9 164.2 C28.2 164.2 27.6 164.2 26.9 164.2 C26.9 162.3 26.9 160.3 26.9 158.2 C26.2 158.2 25.6 158.2 24.9 158.2 C24.4 156.3 23.9 154.4 23.4 152.5 C23.2 151.5 22.9 150.4 22.6 149.3 C22 146.6 21.4 144 20.9 141.2 C20.2 141.2 19.6 141.2 18.9 141.2 C18.8 140.7 18.8 140.1 18.7 139.6 C18.7 139.2 18.7 139.2 18.5 137.4 C18.5 137 18.5 137 18.3 135.2 C17.9 133.2 17.9 133.2 15.9 131.2 C15.9 129.2 15.9 127.2 15.9 125.2 C15.2 124.6 14.6 123.9 13.9 123.2 C12.2 119.1 11.7 115.7 11.9 111.2 C11.2 111.2 10.6 111.2 9.9 111.2 C9.9 110.6 9.9 109.9 9.9 109.2 C9.2 109.2 8.6 109.2 7.9 109.2 C7.9 107.9 7.9 106.6 7.9 105.2 C5.9 105.2 3.9 105.2 1.9 105.2 C1.9 105.8 1.9 106.3 1.9 106.8 C1.9 109.2 2 111.6 2 114 C2 114.8 2 115.6 2 116.5 C2.1 117.3 2.1 118.1 2.1 118.9 C2.1 119.6 2.1 120.4 2.1 121.1 C1.8 123.5 1 125.1 -0.1 127.2 C0.7 129 0.7 129 1.9 130.2 C1.2 130.6 0.6 130.9 -0.1 131.2 C-0.4 133.7 -0.4 133.7 -0.1 136.2 C0.5 136.6 1.2 136.9 1.9 137.2 C2 140.3 2 140.3 1.9 143.2 C2.5 143.2 3.2 143.2 3.9 143.2 C6 147.2 7.2 151.8 7.9 156.2 C8.5 156.2 9.2 156.2 9.9 156.2 C9.9 157.6 9.9 158.9 9.9 160.2 C10.5 160.2 11.2 160.2 11.9 160.2 C11.9 160.7 11.9 161.2 11.9 161.7 C12.4 167.2 14 170.6 16.9 175.2 C18 177.1 19.1 178.9 20.1 180.8 C20.6 181.7 21.2 182.6 21.7 183.5 C23 186.6 23.1 188.9 22.9 192.2 C23.5 192.2 24.2 192.2 24.9 192.2 C24.9 192.9 24.9 193.6 24.9 194.2 C25.5 194.2 26.2 194.2 26.9 194.2 C26.9 195.6 26.9 196.9 26.9 198.2 C27.5 198.2 28.2 198.2 28.9 198.2 C29.5 199.6 29.5 199.6 30.1 201.6 C31.4 205.2 32.9 208.2 34.9 211.4 C37.2 215 38.8 218.1 39.9 222.2 C40.5 222.2 41.2 222.2 41.9 222.2 C41.9 223.6 41.9 224.9 41.9 226.2 C42.5 226.2 43.2 226.2 43.9 226.2 C44.3 233.4 44.3 233.4 42.8 236.2 C39.8 237.8 37.2 237.4 33.9 237.2 C33.5 235.6 33.2 233.9 32.9 232.2 C32.2 232.2 31.6 232.2 30.9 232.2 C30.9 231.6 30.9 230.9 30.9 230.2 C30.2 230.2 29.6 230.2 28.9 230.2 C28.9 229.6 28.9 228.9 28.9 228.2 C28.2 228.2 27.6 228.2 26.9 228.2 C26.6 227.3 26.4 226.3 26.1 225.4 C25 221.3 23.4 217.4 21.7 213.6 C20.9 211.3 20.7 209.6 20.9 207.2 C19.6 207.6 18.2 207.9 16.9 208.2 C17.2 208.8 17.5 209.3 17.9 209.8 C19.1 212.9 19.1 215.2 19 218.5 C19 219.6 19 220.6 18.9 221.7 C18.9 222.6 18.9 223.4 18.9 224.2 C19.5 224.2 20.2 224.2 20.9 224.2 C22.6 229.4 23.1 233.8 22.9 239.2 C23.5 239.2 24.2 239.2 24.9 239.2 C24.9 241.9 24.9 244.5 24.9 247.2 C25.5 247.2 26.2 247.2 26.9 247.2 C27.4 248.8 27.8 250.4 28.3 251.9 C28.6 252.8 28.8 253.7 29.1 254.6 C29.8 257.1 30.4 259.6 30.9 262.2 C31.5 262.2 32.2 262.2 32.9 262.2 C32.9 263.6 32.9 264.9 32.9 266.2 C33.9 266.6 34.9 266.9 35.9 267.2 C35.9 269.2 35.9 271.2 35.9 273.2 C36.5 273.2 37.2 273.2 37.9 273.2 C37.9 274.6 37.9 275.9 37.9 277.2 C38.5 277.2 39.2 277.2 39.9 277.2 C42.2 283.6 42.1 289.5 41.9 296.2 C41.2 296.2 40.6 296.2 39.9 296.2 C39.9 299.2 39.9 302.2 39.9 305.2 C40.5 305.2 41.2 305.2 41.9 305.2 C41.9 306.6 41.9 307.9 41.9 309.2 C42.5 309.2 43.2 309.2 43.9 309.2 C43.9 310.6 43.9 311.9 43.9 313.2 C44.5 313.2 45.2 313.2 45.9 313.2 C45.9 313.8 46 314.3 46.1 314.9 C46.1 315.6 46.2 316.3 46.3 317 C46.4 317.8 46.5 318.5 46.6 319.2 C46.9 321.2 46.9 321.2 47.9 324.2 C44.6 324.2 41.3 324.2 37.9 324.2 C37.9 323.6 37.9 322.9 37.9 322.2 C37.2 322.2 36.6 322.2 35.9 322.2 C35.7 321.6 35.6 321 35.5 320.3 C35.3 319.6 35.1 318.9 34.9 318.2 C34.2 317.9 33.6 317.6 32.9 317.2 C32.2 315.6 31.5 313.9 30.9 312.2 C30.2 311.9 29.6 311.6 28.9 311.2 C28.7 309.2 28.7 309.2 28.9 307.2 C28.2 307.2 27.6 307.2 26.9 307.2 C26.2 305.6 25.5 303.9 24.9 302.2 C24.2 301.2 23.5 300.2 22.7 299.2 C21 296.4 20.4 295.4 20.9 292.2 C20.2 292.2 19.6 292.2 18.9 292.2 C18.9 290.9 18.9 289.6 18.9 288.2 C17.9 287.9 16.9 287.6 15.9 287.2 C15.9 285.9 15.9 284.6 15.9 283.2 C15.2 283.2 14.6 283.2 13.9 283.2 C13.9 282.6 13.9 281.9 13.9 281.2 C13.2 281.2 12.6 281.2 11.9 281.2 C11.9 279.9 11.9 278.6 11.9 277.2 C11.2 277.2 10.6 277.2 9.9 277.2 C9.9 275.9 9.9 274.6 9.9 273.2 C9.2 273.2 8.6 273.2 7.9 273.2 C7.8 272.3 7.7 271.4 7.7 270.4 C6.9 267.2 6.9 267.2 4.6 265.6 C4.2 265.4 4.2 265.4 1.9 264.2 C0.1 263 -1.5 261.6 -3.1 260.2 C-3.8 262.2 -4.4 264.2 -5.1 266.2 C-4.5 266.2 -3.8 266.2 -3.1 266.2 C-1.8 267.3 -1.8 267.3 -0.5 268.6 C-0.3 268.8 -0.3 268.8 0.8 269.9 C1.9 271.2 1.9 271.2 1.9 273.2 C2.5 273.2 3.2 273.2 3.9 273.2 C3.9 274.6 3.9 275.9 3.9 277.2 C4.5 277.2 5.2 277.2 5.9 277.2 C7.1 281 7.9 283.6 7.7 287.5 C7.8 288.4 7.8 289.3 7.9 290.2 C9.6 291.3 9.6 291.3 11.9 292.2 C15.6 294.8 15.6 294.8 16.9 297.2 C17 299.9 17 299.9 16.9 302.9 C16.7 305.8 16.7 305.8 16.9 308.2 C19.1 310.1 19.1 310.1 21.9 311.2 C24.5 313.4 26.5 315.6 28.2 318.5 C29.9 321.3 31.7 322.9 34.1 325.1 C38.5 329.4 38.5 329.4 38.7 332.9 C37.6 337.3 36.5 338.6 32.9 341.2 C30.9 340.9 30.9 340.9 28.9 340.2 C28.2 340 27.6 339.8 26.9 339.6 C22.6 338.1 19.8 336.8 16.9 333.2 C16.8 334.3 16.8 335.5 16.7 336.6 C16.7 337.2 16.7 337.9 16.7 338.5 C16.9 340.2 16.9 340.2 18.9 342.2 C20.6 346.4 21.1 349.8 20.9 354.2 C21.5 354.2 22.2 354.2 22.9 354.2 C22.9 356.2 22.9 358.2 22.9 360.2 C23.5 360.2 24.2 360.2 24.9 360.2 C24.9 360.9 24.9 361.6 24.9 362.2 C25.5 362.2 26.2 362.2 26.9 362.2 C27 362.6 27 362.6 27.6 364.3 C29.4 368.4 32.3 371.4 35.9 374.2 C38.1 374.9 38.1 374.9 39.9 375.2 C39.9 377.2 39.9 379.2 39.9 381.2 C35.6 381.2 31.3 381.2 26.9 381.2 C26.9 380.6 26.9 379.9 26.9 379.2 C26.2 379.2 25.6 379.2 24.9 379.2 C24.9 378.6 24.9 377.9 24.9 377.2 C24.2 377.2 23.6 377.2 22.9 377.2 C22.9 376.6 22.9 375.9 22.9 375.2 C22.2 375.2 21.6 375.2 20.9 375.2 C20.9 373.9 20.9 372.6 20.9 371.2 C20.2 371.2 19.6 371.2 18.9 371.2 C18.6 370.4 18.3 369.7 17.9 368.9 C16.8 366.1 16.3 365.7 13.9 364.2 C13.9 363.6 13.9 362.9 13.9 362.2 C13.6 362.4 13.6 362.4 12.2 363.2 C9.5 364.4 7.5 364.5 4.6 364.5 C3.6 364.5 2.6 364.5 1.5 364.5 C0.5 364.4 -0.6 364.4 -1.6 364.4 C-2.7 364.4 -3.7 364.4 -4.8 364.4 C-12.6 364.4 -12.6 364.4 -15.4 363.7 C-16 363.5 -16.5 363.4 -17.1 363.2 C-17.5 363.6 -17.8 363.9 -18.1 364.2 C-20.5 364.3 -22.8 364.4 -25.1 364.4 C-25.8 364.4 -26.4 364.4 -27.1 364.4 C-32 364.4 -32 364.4 -33.1 363.2 C-34.5 363 -35.8 362.8 -37.2 362.7 C-37.6 362.6 -37.6 362.6 -39.4 362.4 C-40 362.4 -40.5 362.3 -41.1 362.2 C-41.1 361.6 -41.1 360.9 -41.1 360.2 C-43.1 360.2 -45.1 360.2 -47.1 360.2 C-47.1 359.6 -47.1 358.9 -47.1 358.2 C-48.1 358.3 -49.1 358.3 -50.1 358.3 C-53.1 358.2 -53.1 358.2 -54.1 357.2 C-55.5 357 -56.8 356.8 -58.2 356.7 C-58.9 356.6 -59.7 356.5 -60.4 356.4 C-61 356.4 -61.5 356.3 -62.1 356.2 C-62.1 358.2 -62.1 360.2 -62.1 362.2 C-61.5 362.2 -60.8 362.2 -60.1 362.2 C-60.1 362.9 -60.1 363.6 -60.1 364.2 C-59.5 364.2 -58.8 364.2 -58.1 364.2 C-57.9 365.1 -57.7 365.9 -57.5 366.8 C-57.2 367.9 -57 369 -56.7 370.2 C-56.4 371.3 -56.2 372.4 -55.9 373.5 C-55.1 376.2 -55.1 376.2 -54.1 377.2 C-53.8 379.8 -53.7 382.3 -53.5 384.9 C-53.1 387.2 -53.1 387.2 -51.1 389.2 C-50.9 390.9 -50.9 390.9 -50.9 392.9 C-50.9 393.6 -50.9 394.4 -51 395.1 C-51 395.5 -51 395.5 -51 397.4 C-51 398.1 -51 398.9 -51 399.6 C-51.1 401.5 -51.1 403.4 -51.1 405.2 C-50.5 405.2 -49.8 405.2 -49.1 405.2 C-48.9 406.2 -48.7 407.2 -48.5 408.3 C-48.2 409.6 -48 410.9 -47.7 412.2 C-47.6 412.8 -47.4 413.5 -47.3 414.2 C-46.2 419.1 -46.2 419.1 -45.1 420.2 C-45.1 422.2 -45.1 424.2 -45.1 426.2 C-44.5 426.2 -43.8 426.2 -43.1 426.2 C-43.1 426.5 -43.1 426.5 -43 427.7 C-42.7 431.4 -42.2 434.4 -40.6 437.7 C-38.7 441.6 -38.8 445.1 -39.1 449.2 C-38.5 449.2 -37.8 449.2 -37.1 449.2 C-35.2 455.7 -35.2 455.7 -34.6 458.9 C-34.1 461.2 -34.1 461.2 -33.1 463 C-31.6 466.4 -32 469.7 -32.1 473.2 C-31.5 473.2 -30.8 473.2 -30.1 473.2 C-30.1 474.6 -30.1 475.9 -30.1 477.2 C-29.5 477.2 -28.8 477.2 -28.1 477.2 C-26.4 482.4 -25.9 486.8 -26.1 492.2 C-25.5 492.2 -24.8 492.2 -24.1 492.2 C-24.1 494.2 -24.1 496.2 -24.1 498.2 C-25.7 498.3 -27.3 498.4 -28.9 498.4 C-29.8 498.5 -30.7 498.5 -31.6 498.5 C-34.1 498.2 -34.1 498.2 -35.8 497 C-37.4 494.9 -38.3 492.8 -39.3 490.3 C-39.7 489.4 -40 488.6 -40.4 487.7 C-41.1 485.4 -41.3 483.7 -41.1 481.2 C-41.8 481.2 -42.4 481.2 -43.1 481.2 C-43.1 478.6 -43.1 476 -43.1 473.2 C-43.8 473.2 -44.4 473.2 -45.1 473.2 C-47.4 466.9 -47.3 460.9 -47.1 454.2 C-47.8 454.2 -48.4 454.2 -49.1 454.2 C-49.3 453.7 -49.4 453.3 -49.5 452.8 C-49.6 452.5 -49.6 452.5 -50.1 450.9 C-50.2 450.2 -50.4 449.6 -50.6 449 C-51.1 447.2 -51.1 447.2 -52.1 445.2 C-52.1 444.4 -52.1 443.6 -52.1 442.7 C-52.1 440.2 -52.1 440.2 -54.1 438.2 C-54.3 435.1 -54.3 435.1 -54.1 432.2 C-54.8 432.2 -55.4 432.2 -56.1 432.2 C-56.1 432 -56.1 432 -56.2 430.7 C-56.6 427.1 -57 424.1 -58.7 420.9 C-60.8 416.5 -60.4 412 -60.1 407.2 C-60.8 407.2 -61.4 407.2 -62.1 407.2 C-62.1 403.6 -62.1 400 -62.1 396.2 C-62.8 396.2 -63.4 396.2 -64.1 396.2 C-64.2 395.5 -64.3 394.8 -64.3 394.1 C-64.4 393.2 -64.5 392.2 -64.6 391.3 C-64.6 390.8 -64.6 390.8 -64.8 388.5 C-65.1 386.2 -65.1 386.2 -66.1 385.2 C-66.3 383.9 -66.3 382.6 -66.4 381.3 C-66.4 380.5 -66.4 379.7 -66.5 378.9 C-66.5 377.2 -66.6 375.5 -66.6 373.8 C-66.7 373 -66.7 372.2 -66.8 371.4 C-66.8 370.7 -66.8 370 -66.8 369.2 C-67.2 367 -67.8 366 -69.1 364.2 C-69.5 362.9 -69.8 361.6 -70.1 360.2 C-72.2 354.9 -74 352.1 -79.1 349.2 C-81.2 346.8 -83.1 344.5 -83.1 341.2 C-81.8 341.2 -80.5 341.2 -79.1 341.2 C-79.1 340.6 -79.1 339.9 -79.1 339.2 C-73.5 339.9 -67.9 340.6 -62.1 341.2 C-62.1 341.9 -62.1 342.6 -62.1 343.2 C-61.3 343.2 -60.4 343.2 -59.5 343.2 C-59 343.2 -59 343.2 -56.2 343.2 C-55.1 343.2 -54 343.1 -52.9 343.1 C-50.1 343.2 -50.1 343.2 -49.1 344.2 C-47.4 344.5 -45.8 344.6 -44.1 344.8 C-43.1 344.9 -42.2 345 -41.3 345 C-40.6 345.1 -39.9 345.2 -39.1 345.2 C-39.1 345.9 -39.1 346.6 -39.1 347.2 C-38.7 346.9 -38.3 346.5 -37.9 346.2 C-35.5 344.9 -34.7 345.6 -32.1 346.2 C-30.2 346.4 -28.2 346.5 -26.3 346.5 C-25.2 346.6 -24 346.6 -22.9 346.7 C-21.7 346.7 -20.5 346.8 -19.4 346.8 C-18.2 346.8 -17 346.9 -15.8 346.9 C-12.9 347 -10 347.1 -7.1 347.2 C-7.1 347.9 -7.1 348.6 -7.1 349.2 C-3.5 349.2 0.1 349.2 3.9 349.2 C3.9 348.6 3.9 347.9 3.9 347.2 C5.2 347.2 6.5 347.2 7.9 347.2 C7.9 345.9 7.9 344.6 7.9 343.2 C7.2 343.2 6.6 343.2 5.9 343.2 C5.8 342.7 5.7 342.1 5.7 341.5 C5.6 340.8 5.5 340 5.4 339.3 C5.4 338.6 5.3 337.8 5.2 337.1 C4.9 335.2 4.9 335.2 3.9 334.2 C3.8 332.5 3.8 330.9 3.8 329.2 C3.8 328.2 3.8 327.3 3.8 326.4 C3.8 326 3.8 326 3.9 324.2 C3.2 324.2 2.6 324.2 1.9 324.2 C1.8 323.6 1.8 322.9 1.7 322.2 C1.7 321.7 1.7 321.7 1.5 319.5 C1.5 319 1.5 319 1.3 316.8 C0.8 313.5 -0.6 311.2 -2.2 308.3 C-3.3 305.7 -3.3 303.8 -3.3 301 C-3.2 300.1 -3.2 299.2 -3.2 298.3 C-3.2 297.6 -3.2 296.9 -3.1 296.2 C-3.8 296.2 -4.4 296.2 -5.1 296.2 C-5.2 295.7 -5.3 295.1 -5.3 294.5 C-5.4 293.8 -5.5 293 -5.6 292.3 C-5.6 291.6 -5.7 290.8 -5.8 290.1 C-6.1 288.2 -6.1 288.2 -7.1 287.2 C-7.2 285.9 -7.2 284.5 -7.2 283.2 C-7.2 282.4 -7.2 281.7 -7.2 280.9 C-7.2 280.4 -7.1 279.8 -7.1 279.2 C-7.8 279.2 -8.4 279.2 -9.1 279.2 C-9.1 277.3 -9.1 275.3 -9.1 273.2 C-8.5 273.2 -7.8 273.2 -7.1 273.2 C-7.1 273 -7.1 273 -7.1 271.7 C-7.2 266.3 -7.3 260.9 -7.3 255.5 C-7.3 253.4 -7.3 251.4 -7.4 249.4 C-7.4 246.5 -7.4 243.6 -7.4 240.7 C-7.4 239.8 -7.5 238.9 -7.5 238 C-7.5 237.6 -7.5 237.6 -7.5 235.4 C-7.5 235.1 -7.5 235.1 -7.5 233.2 C-7 230.7 -5.9 229.9 -4.1 228.2 C-3.4 225 -3.4 225 -3.1 222.2 C-8.9 221.1 -8.9 221.1 -11.1 222.2 C-13.3 217.8 -13.3 214 -13.1 209.2 C-13.8 209.2 -14.4 209.2 -15.1 209.2 C-15.2 208.6 -15.2 207.9 -15.3 207.2 C-15.3 206.7 -15.3 206.7 -15.5 204.5 C-15.5 204 -15.5 204 -15.7 201.8 C-16.1 199.2 -16.1 199.2 -17.2 197.2 C-18.4 194.7 -18.4 192.9 -18.3 190.1 C-18.3 189.7 -18.3 189.7 -18.3 187.5 C-18.1 185.2 -18.1 185.2 -17.1 183.2 C-16.5 183.2 -15.8 183.2 -15.1 183.2 C-14.8 182.6 -14.5 181.9 -14.1 181.2 C-13.8 180.6 -13.5 179.9 -13.1 179.2 C-12.5 179.2 -11.8 179.2 -11.1 179.2 C-11.1 179.9 -11.1 180.6 -11.1 181.2 C-9.1 181.2 -7.2 181.2 -5.1 181.2 C-5.1 181.9 -5.1 182.6 -5.1 183.2 C-4.5 183.2 -3.8 183.2 -3.1 183.2 C-2.8 183.9 -2.5 184.6 -2.1 185.2 C-1.1 185.2 -0.1 185.2 0.9 185.2 C1.4 178.7 0.8 175.5 -3.1 170.2 C-3.4 167.9 -3.4 167.9 -3.1 166.2 C-3.8 166.2 -4.4 166.2 -5.1 166.2 C-5.1 164.9 -5.1 163.6 -5.1 162.2 C-5.8 162.2 -6.4 162.2 -7.1 162.2 C-7.1 160.9 -7.1 159.6 -7.1 158.2 C-7.8 158.2 -8.4 158.2 -9.1 158.2 C-9.2 157.5 -9.3 156.9 -9.3 156.1 C-9.4 155.2 -9.5 154.3 -9.6 153.4 C-9.6 153 -9.6 153 -9.8 150.7 C-10.1 148.2 -10.1 148.2 -11.1 145.2 C-10.5 145.2 -9.8 145.2 -9.1 145.2 C-9.1 143.9 -9.1 142.6 -9.1 141.2 C-8.5 141.2 -7.8 141.2 -7.1 141.2 C-7.1 140.6 -7.1 139.9 -7.1 139.2 C-6.5 139.2 -5.8 139.2 -5.1 139.2 C-5.1 134.9 -5.1 130.7 -5.1 126.2 C-5.8 126.2 -6.4 126.2 -7.1 126.2 C-7.1 121.3 -7.1 116.3 -7.1 111.2 C-7.8 111.2 -8.4 111.2 -9.1 111.2 C-9.1 105 -9.1 98.7 -9.1 92.2 C-8.5 92.2 -7.8 92.2 -7.1 92.2 C-7.1 90.9 -7.1 89.6 -7.1 88.2 C-2.8 88.2 1.5 88.2 5.9 88.2 C5.9 88.9 5.9 89.6 5.9 90.2 C6.5 90.2 7.2 90.2 7.9 90.2 C7.9 90.9 7.9 91.6 7.9 92.2 C8.5 92.2 9.2 92.2 9.9 92.2 C9.9 92.9 9.9 93.6 9.9 94.2 C10.5 94.2 11.2 94.2 11.9 94.2 C10.4 87.5 8.7 83.3 3.3 78.8 C1.9 77.2 1.9 77.2 1.7 75 C1.7 74.4 1.8 73.8 1.9 73.2 C0.9 72.9 -0.1 72.6 -1.1 72.2 C-3.4 69 -3.3 66.1 -3.1 62.2 C-3.8 62.2 -4.4 62.2 -5.1 62.2 C-5.3 61.8 -5.3 61.8 -6 59.9 C-7.1 57.2 -7.1 57.2 -9.3 55.9 C-9.9 55.7 -10.5 55.5 -11.1 55.2 C-11.3 55.6 -11.3 55.6 -11.9 57.5 C-13.1 60.2 -13.1 60.2 -15.1 62.1 C-17.4 64.5 -18.3 66.7 -19.4 69.8 C-19.7 70.3 -19.9 70.8 -20.1 71.2 C-20.8 71.2 -21.4 71.2 -22.1 71.2 C-22.1 71.9 -22.1 72.6 -22.1 73.2 C-22.8 73.2 -23.4 73.2 -24.1 73.2 C-24.1 74.6 -24.1 75.9 -24.1 77.2 C-24.8 77.2 -25.4 77.2 -26.1 77.2 C-26.1 77.9 -26.1 78.6 -26.1 79.2 C-26.8 79.2 -27.4 79.2 -28.1 79.2 C-28.2 80 -28.3 80.7 -28.4 81.5 C-29.3 84.8 -30.7 85.8 -33.1 88.2 C-34.4 90.4 -35.6 92.6 -36.8 94.8 C-38.8 98.4 -40.9 101.8 -43.1 105.2 C-42.5 105.2 -41.8 105.2 -41.1 105.2 C-41.1 107.9 -41.1 110.5 -41.1 113.2 C-41.8 113.2 -42.4 113.2 -43.1 113.2 C-43.2 113.6 -43.2 113.6 -43.4 115.2 C-44.9 121.8 -46.3 126.5 -52.1 130.2 C-53 130.7 -53.8 131.2 -54.7 131.7 C-57.3 133.4 -59.2 134.8 -61.1 137.2 C-61.9 140.5 -61.9 140.5 -62.1 143.2 C-62.8 143.2 -63.4 143.2 -64.1 143.2 C-64.1 144.6 -64.1 145.9 -64.1 147.2 C-64.8 147.2 -65.4 147.2 -66.1 147.2 C-66.2 148 -66.3 148.8 -66.4 149.6 C-66.6 150.5 -66.9 151.3 -67.1 152.2 C-68.5 152.9 -69.8 153.6 -71.1 154.2 C-71.4 156.4 -71.4 156.4 -71.1 158.2 C-71.8 158.2 -72.4 158.2 -73.1 158.2 C-73.2 159 -73.3 159.7 -73.4 160.4 C-74.2 163.5 -75.4 165.6 -77.1 168.2 C-79 171.2 -80.5 173.7 -81.1 177.2 C-81.8 177.2 -82.4 177.2 -83.1 177.2 C-83 177.8 -82.9 178.3 -82.8 178.9 C-83.3 182.2 -85.2 183 -87.7 185 C-89.5 186.6 -90 187.9 -90.1 190.2 C-90.8 190.2 -91.4 190.2 -92.1 190.2 C-92.1 191.6 -92.1 192.9 -92.1 194.2 C-92.8 194.2 -93.4 194.2 -94.1 194.2 C-94.1 194.9 -94.1 195.6 -94.1 196.2 C-94.8 196.2 -95.4 196.2 -96.1 196.2 C-96.1 196.9 -96.2 197.6 -96.2 198.3 C-97.4 202.1 -99.6 203.9 -102.6 206.5 C-104.1 208.2 -104.1 208.2 -104.3 210.4 C-104.3 211 -104.2 211.6 -104.1 212.2 C-103.7 212.1 -103.7 212.1 -101.4 211.4 C-100.3 211.4 -99.2 211.3 -98.1 211.2 C-95.4 213.7 -94.3 215.3 -93.7 218.9 C-94.2 221.7 -95.1 222.3 -97.1 224.2 C-97.8 226.4 -97.8 226.4 -98.1 228.2 C-98.8 228.2 -99.4 228.2 -100.1 228.2 C-100.1 228.9 -100.1 229.6 -100.1 230.2 C-100.8 230.7 -101.4 231.1 -102.1 231.6 C-104.4 233.4 -104.7 234.4 -105.1 237.2 C-105.8 237.2 -106.4 237.2 -107.1 237.2 C-107.1 238.6 -107.1 239.9 -107.1 241.2 C-107.8 241.2 -108.4 241.2 -109.1 241.2 C-109.1 241.9 -109.1 242.6 -109.1 243.2 C-109.8 243.2 -110.4 243.2 -111.1 243.2 C-111.1 243.9 -111.1 244.6 -111.1 245.2 C-111.8 245.2 -112.4 245.2 -113.1 245.2 C-113.1 245.9 -113.1 246.6 -113.1 247.2 C-113.8 247.2 -114.4 247.2 -115.1 247.2 C-115.1 247.9 -115.1 248.6 -115.1 249.2 C-115.8 249.2 -116.4 249.2 -117.1 249.2 C-117.8 250.5 -118.5 251.9 -119.1 253.2 C-119.8 254.2 -120.4 255.2 -121.1 256.2 C-122.9 258.8 -124.5 261.5 -126.1 264.2 C-126.7 265.1 -127.2 265.9 -127.8 266.8 C-129 269 -129.7 270.8 -130.1 273.2 C-130.8 273.2 -131.4 273.2 -132.1 273.2 C-132.1 274.6 -132.1 275.9 -132.1 277.2 C-132.8 277.2 -133.4 277.2 -134.1 277.2 C-134.1 277.9 -134.1 278.6 -134.1 279.2 C-134.8 279.2 -135.4 279.2 -136.1 279.2 C-136.1 279.8 -136 280.4 -135.9 281 C-136.1 283.2 -136.1 283.2 -137.5 285 C-139.1 286.2 -139.1 286.2 -141.1 286.2 C-141.1 286.9 -141.1 287.6 -141.1 288.2 C-141.8 288.2 -142.4 288.2 -143.1 288.2 C-143.1 288.9 -143.1 289.6 -143.1 290.2 C-143.8 290.2 -144.4 290.2 -145.1 290.2 C-145.1 290.9 -145.1 291.6 -145.1 292.2 C-145.8 292.2 -146.4 292.2 -147.1 292.2 C-147.1 293.6 -147.1 294.9 -147.1 296.2 C-147.8 296.2 -148.4 296.2 -149.1 296.2 C-149.1 296.9 -149.1 297.6 -149.1 298.2 C-149.8 298.2 -150.4 298.2 -151.1 298.2 C-151.2 298.9 -151.3 299.7 -151.3 300.4 C-152.4 304 -154.4 306 -157.1 308.5 C-157.3 308.8 -157.3 308.8 -158.4 309.9 C-161.8 313.2 -161.8 313.2 -164.1 313.2 C-164.2 314 -164.3 314.8 -164.4 315.6 C-165.1 318.2 -165.1 318.2 -167.2 319.5 C-167.8 319.8 -168.5 320 -169.1 320.2 C-169.4 319.6 -169.6 318.9 -169.8 318.2 C-170.2 317.6 -170.7 316.9 -171.1 316.2 C-174.2 315.8 -176.1 316.2 -179.1 317.2 C-179.3 314.4 -179.3 314.4 -179.1 311.2 C-177.7 310.1 -177.7 310.1 -176.1 309.2 C-176 308.6 -175.9 308 -175.8 307.4 C-174.9 304.4 -173 303.3 -170.5 301.4 C-169.1 300.2 -169.1 300.2 -168.1 298.2 C-167.5 298.2 -166.8 298.2 -166.1 298.2 C-166.1 297.6 -166.1 296.9 -166.1 296.2 C-165.5 296.2 -164.8 296.2 -164.1 296.2 C-164.1 294.9 -164.1 293.6 -164.1 292.2 C-163.5 292.2 -162.8 292.2 -162.1 292.2 C-162.1 290.9 -162.1 289.6 -162.1 288.2 C-161.5 288.2 -160.8 288.2 -160.1 288.2 C-159.9 287.7 -159.6 287.1 -159.3 286.5 C-157.7 283.4 -155.9 281.6 -153.1 279.2 C-150.8 278.9 -150.8 278.9 -149.1 279.2 C-149.1 277.9 -149.1 276.6 -149.1 275.2 C-149.8 275.2 -150.4 275.2 -151.1 275.2 C-151.1 274.6 -151.1 273.9 -151.1 273.2 C-151.8 273.2 -152.4 273.2 -153.1 273.2 C-153.1 268.9 -153.1 264.7 -153.1 260.2 C-152.5 260.2 -151.8 260.2 -151.1 260.2 C-150 255.3 -149.6 250.3 -149.1 245.2 C-147.8 245.2 -146.5 245.2 -145.1 245.2 C-145.1 244.6 -145.1 243.9 -145.1 243.2 C-144.5 243.2 -143.8 243.2 -143.1 243.2 C-143.1 242.6 -143.1 241.9 -143.1 241.2 C-142.5 241.2 -141.8 241.2 -141.1 241.2 C-141.2 240.6 -141.2 240 -141.3 239.3 C-141.2 238.6 -141.2 237.9 -141.1 237.2 C-140.5 236.9 -139.8 236.6 -139.1 236.2 C-138.5 234.2 -138.5 234.2 -138.1 232.2 C-137.5 232.2 -136.8 232.2 -136.1 232.2 C-136.1 231.6 -136.1 230.9 -136.1 230.2 C-135.5 230.2 -134.8 230.2 -134.1 230.2 C-134.1 229.6 -134.1 228.9 -134.1 228.2 C-133.5 228.2 -132.8 228.2 -132.1 228.2 C-132.1 227.6 -132.1 226.9 -132.1 226.2 C-131.5 226.2 -130.8 226.2 -130.1 226.2 C-130.1 225.6 -130.1 224.9 -130.1 224.2 C-129.5 224.2 -128.8 224.2 -128.1 224.2 C-128.1 223.5 -128 222.8 -127.9 222.1 C-126.9 218.3 -124.8 216.1 -122.1 213.2 C-120.1 210.8 -118.3 208.5 -116.7 205.7 C-115.4 203.6 -114.3 202.3 -112.5 200.7 C-110.2 198.3 -109.5 197.4 -109.1 194.2 C-108.5 194.2 -107.8 194.2 -107.1 194.2 C-107.2 193.9 -107.2 193.9 -107.4 192.4 C-107.1 190.2 -107.1 190.2 -105.4 188.4 C-104.7 187.9 -103.9 187.3 -103.2 186.7 C-100.2 184.4 -98.7 183.1 -98.1 179.2 C-97.5 179.2 -96.8 179.2 -96.1 179.2 C-96.1 178.6 -96.1 177.9 -96.1 177.2 C-95.5 177.2 -94.8 177.2 -94.1 177.2 C-94.1 175.9 -94.1 174.6 -94.1 173.2 C-93.5 173.2 -92.8 173.2 -92.1 173.2 C-92.1 172.6 -92.1 171.9 -92.1 171.2 C-96.1 172.5 -98.5 174 -101.1 177.2 C-101.2 177.6 -101.2 177.6 -101.6 179.4 C-101.8 180 -101.9 180.6 -102.1 181.2 C-102.9 181.5 -103.7 181.8 -104.6 182.2 C-107.1 183.2 -107.1 183.2 -108.3 185.9 C-108.6 186.6 -108.9 187.4 -109.1 188.2 C-109.8 188.2 -110.4 188.2 -111.1 188.2 C-111.1 188.9 -111.1 189.6 -111.1 190.2 C-111.8 190.2 -112.4 190.2 -113.1 190.2 C-113.1 190.9 -113.1 191.6 -113.1 192.2 C-113.8 192.2 -114.4 192.2 -115.1 192.2 C-115.1 192.9 -115.1 193.6 -115.1 194.2 C-115.8 194.2 -116.4 194.2 -117.1 194.2 C-117.1 194.9 -117.1 195.6 -117.1 196.2 C-118.8 197.9 -118.8 197.9 -121.1 199.7 C-125 203 -125 203 -126.1 205.2 C-126.8 205.2 -127.4 205.2 -128.1 205.2 C-128.1 205.9 -128.1 206.6 -128.1 207.2 C-128.8 207.2 -129.4 207.2 -130.1 207.2 C-130.1 207.9 -130.1 208.6 -130.1 209.2 C-130.8 209.5 -131.6 209.7 -132.3 210 C-136.5 211.8 -138.9 215 -141.8 218.4 C-145.2 222.1 -145.2 222.1 -148 222.6 C-150 222.6 -150 222.6 -153.1 222.2 C-153.1 221.6 -153.1 220.9 -153.1 220.2 C-153.8 220.2 -154.4 220.2 -155.1 220.2 C-155.8 217.4 -155.8 217.4 -156.1 214.2 C-154.8 212.4 -154.8 212.4 -153.1 211.2 C-152.5 211.2 -151.8 211.2 -151.1 211.2 C-151.1 209.9 -151.1 208.6 -151.1 207.2 C-150.5 207.3 -149.9 207.4 -149.3 207.5 C-148.6 207.4 -147.9 207.3 -147.1 207.2 C-146.8 206.7 -146.6 206.1 -146.3 205.5 C-144.9 202.7 -143.1 201 -140.9 198.8 C-140.5 198.4 -140 197.9 -139.6 197.5 C-138.7 196.6 -137.7 195.7 -136.8 194.8 C-135.3 193.3 -133.9 191.9 -132.4 190.4 C-129.3 187.3 -126.2 184.2 -123.1 181.2 C-119.5 177.6 -115.8 174 -112.2 170.5 C-110.8 169 -109.3 167.6 -107.9 166.2 C-107 165.3 -106.1 164.4 -105.2 163.5 C-104.5 162.8 -103.7 162 -102.9 161.2 C-101.1 159.2 -101.1 159.2 -100.1 156.2 C-98.5 155.2 -96.8 154.2 -95.1 153.2 C-91.4 150 -88.6 146.6 -86.1 142.2 C-85.5 141.6 -84.8 140.9 -84.1 140.2 C-83.8 139.2 -83.5 138.3 -83.1 137.2 C-82.1 134.2 -82.1 134.2 -80.1 132.2 C-79.5 130.1 -79.5 130.1 -79.1 128.2 C-78.5 128.2 -77.8 128.2 -77.1 128.2 C-77.1 127.6 -77.1 126.9 -77.1 126.2 C-76.5 126.2 -75.8 126.2 -75.1 126.2 C-75.1 124.9 -75.1 123.6 -75.1 122.2 C-74.5 122.2 -73.8 122.2 -73.1 122.2 C-73 121.5 -73 120.7 -72.9 120 C-72 116.7 -70.7 115.4 -68.1 113.2 C-67.5 113.2 -66.8 113.2 -66.1 113.2 C-66.1 111.9 -66.1 110.6 -66.1 109.2 C-64.8 109.2 -63.5 109.2 -62.1 109.2 C-62.1 108.6 -62.1 107.9 -62.1 107.2 C-61.5 107.2 -60.8 107.2 -60.1 107.2 C-60.1 106.6 -60.1 105.9 -60.1 105.2 C-59.5 105.2 -58.8 105.2 -58.1 105.2 C-58.1 104.5 -58 103.9 -57.9 103.2 C-57.1 100.3 -56.4 99.2 -54.6 96.9 C-52 93.5 -51.7 91.1 -52.1 86.9 C-52.1 85.2 -52.1 85.2 -51.1 83.2 C-50.5 83.2 -49.8 83.2 -49.1 83.2 C-49.1 81.9 -49.1 80.6 -49.1 79.2 C-48.5 79.2 -47.8 79.2 -47.1 79.2 C-47.1 77.9 -47.1 76.6 -47.1 75.2 C-46.5 75.2 -45.8 75.2 -45.1 75.2 C-45 74.6 -45 73.9 -44.9 73.2 C-43.7 68.4 -41.7 63.8 -38.1 60.2 C-38 59.6 -38 59 -37.9 58.4 C-36.9 55.4 -34.9 54.4 -32.5 52.5 C-30.8 50.9 -30.3 49.6 -30.1 47.2 C-29.5 47.2 -28.8 47.2 -28.1 47.2 C-28.1 46.6 -28.1 45.9 -28.1 45.2 C-27.5 45.2 -26.8 45.2 -26.1 45.2 C-26.1 43.9 -26.1 42.6 -26.1 41.2 C-25.5 41.2 -24.8 41.2 -24.1 41.2 C-24.1 40.6 -24.1 39.9 -24.1 39.2 C-23.5 39.2 -22.8 39.2 -22.1 39.2 C-22.1 33.6 -22.1 28 -22.1 22.2 C-21.5 22.2 -20.8 22.2 -20.1 22.2 C-20.1 21.6 -20.1 20.9 -20.1 20.2 C-18.8 18.6 -18.8 18.6 -17.1 17.2 C-16.5 17.2 -15.8 17.2 -15.1 17.2 C-15.1 16.6 -15.1 15.9 -15.1 15.2 C-14.5 15.2 -13.8 15.2 -13.1 15.2 C-13.1 14.6 -13.1 13.9 -13.1 13.2 C-12.5 13.2 -11.8 13.2 -11.1 13.2 C-11.1 12.6 -11.1 11.9 -11.1 11.2 C-10.5 11.2 -9.8 11.2 -9.1 11.2 C-9.1 10.6 -9.1 9.9 -9.1 9.2 C-8.5 9.2 -7.8 9.2 -7.1 9.2 C-7.1 8.6 -7.1 7.9 -7.1 7.2 C-6.5 7.2 -5.8 7.2 -5.1 7.2 C-5.1 6.8 -5.1 6.8 -4.8 4.9 C-4 1.7 -3.4 0.4 0 0 Z M-6.1 198.2 C-6.7 200.2 -6.7 200.2 -7.1 202.2 C-6.8 202.6 -6.5 202.9 -6.1 203.2 C-6 204.4 -5.9 205.6 -5.8 206.8 C-5.8 207.5 -5.7 208.3 -5.7 209 C-5.6 209.8 -5.6 210.5 -5.6 211.3 C-5.5 212.1 -5.5 212.8 -5.4 213.6 C-5.3 215.5 -5.2 217.4 -5.1 219.2 C-4.5 219.2 -3.8 219.2 -3.1 219.2 C-2.8 220.2 -2.5 221.2 -2.1 222.2 C-1.5 222.2 -0.8 222.2 -0.1 222.2 C0.2 222.9 0.4 223.6 0.7 224.2 C0.9 224.6 0.9 224.6 1.9 226.2 C3.9 226.4 3.9 226.4 5.9 226.2 C6.2 221.1 5.9 217.5 3.6 212.9 C2.9 211.2 2.9 211.2 2.4 208 C1.7 204.6 0.7 204.1 -2.1 202.2 C-2.9 200 -2.9 200 -3.1 198.2 C-4.1 198.2 -5.1 198.2 -6.1 198.2 Z " transform="translate(251.12890625,39.76953125)"/><path d="M0 0 C0.7 0.9 1.4 1.7 2.1 2.6 C4 4.8 5 5 7.9 5.4 C12.2 5.4 15.9 5.4 20 4 C20 4.7 20 5.3 20 6 C21.9 5.9 23.9 5.8 25.8 5.7 C26.9 5.6 28 5.6 29.1 5.5 C32.3 4.9 32.9 4.3 35 2 C38.2 1.8 38.2 1.8 41 2 C41 3.3 41 4.6 41 6 C40.3 6 39.7 6 39 6 C39 6.7 39 7.3 39 8 C37.7 8 36.4 8 35 8 C35.6 9.4 35.6 9.4 37 11 C39 11.7 41 12.4 43 13 C43.2 13.2 43.2 13.2 44 14 C45.5 14.2 47 14.4 48.6 14.6 C49 14.6 49 14.6 51.1 14.8 C51.7 14.9 52.3 14.9 53 15 C53.2 14.5 53.2 14.5 54 12 C54.4 12.3 54.8 12.6 55.2 13 C57.5 14.3 59.1 14.3 61.7 14.4 C62.6 14.5 63.5 14.5 64.4 14.5 C64.8 14.5 64.8 14.5 67.2 14.6 C68.1 14.7 69.1 14.7 70 14.7 C72.4 14.8 74.7 14.9 77 15 C77 17 77 19 77 21 C77.7 21 78.3 21 79 21 C79 26.6 79 32.2 79 38 C79.7 38 80.3 38 81 38 C81 38.9 81.1 39.8 81.1 40.8 C81.2 44.2 81.3 47.6 81.4 51 C81.4 52.4 81.5 53.9 81.5 55.4 C81.6 57.5 81.6 59.6 81.7 61.7 C81.7 62.4 81.7 63 81.7 63.7 C82 70.7 82 70.7 83 74 C83.5 74.2 83.5 74.2 86 75 C85.8 75.4 85.8 75.4 84.9 77.3 C84.6 78.2 84.3 79.1 84 80 C84.9 81.5 84.9 81.5 86 83 C86 84.7 86 86.3 86 88 C86.7 88.7 87.3 89.3 88 90 C88.2 91.9 88.2 91.9 88.1 94.1 C88.1 94.8 88.1 95.6 88.1 96.3 C88 96.9 88 97.4 88 98 C88.7 98 89.3 98 90 98 C90.1 98.6 90.1 99.1 90.2 99.7 C90.3 100.4 90.4 101.2 90.4 101.9 C90.5 102.7 90.6 103.4 90.7 104.2 C91 106 91 106 92 107 C92.1 109 92.1 111 92.1 113.1 C92.1 114.2 92 115.3 92 116.4 C92 117.3 92 118.1 92 119 C92.7 119 93.3 119 94 119 C94.1 119.9 94.1 120.7 94.2 121.6 C94.2 122.1 94.2 122.1 94.4 124.9 C94.5 126 94.6 127.1 94.7 128.3 C95 131 95 131 96 132 C96.1 133.4 96.1 134.7 96.1 136.1 C96.1 136.8 96 137.5 96 138.3 C96 138.9 96 139.4 96 140 C96.7 140 97.3 140 98 140 C98.1 140.7 98.1 141.4 98.2 142.2 C98.3 143.1 98.4 144 98.4 144.9 C98.5 145.9 98.6 146.8 98.7 147.7 C99 150 99 150 100 151 C100.1 152.4 100.1 153.7 100.1 155.1 C100.1 155.8 100 156.5 100 157.3 C100 157.9 100 158.4 100 159 C100.7 159 101.3 159 102 159 C102.9 161.7 103.1 162.9 102.9 165.6 C103 169 103 169 105 171 C105 173 105 175 105 177 C105.7 177.7 106.3 178.3 107 179 C107.1 181.1 107.1 181.1 107 183 C107.7 183 108.3 183 109 183 C109 185 109 187 109 189 C109.7 189 110.3 189 111 189 C111.1 189.6 111.1 190.1 111.2 190.7 C111.3 191.4 111.4 192.2 111.4 192.9 C111.5 193.7 111.6 194.4 111.7 195.2 C112 197 112 197 113 198 C113 200 113 202 113 204 C113.7 204 114.3 204 115 204 C114.1 208.9 114.1 208.9 113 210 C111.3 210.2 111.3 210.2 109.1 210.2 C108.8 210.3 108.8 210.3 107 210.3 C104.4 209.9 103.6 209 102 207 C99 202.4 97.4 198.5 98 193 C97.3 193 96.7 193 96 193 C96 190.4 96 187.7 96 185 C95.3 185 94.7 185 94 185 C92 179.2 91.8 174.1 92 168 C91.3 168 90.7 168 90 168 C90 167.3 89.9 166.6 89.9 165.9 C89.8 165.5 89.8 165.5 89.6 163.2 C89.6 162.3 89.5 161.4 89.4 160.5 C89 158 89 158 88 156.5 C86.5 154.3 86.9 152.5 87 149.9 C87.1 147.2 87.1 147.2 87 145 C86.3 144.7 85.7 144.3 85 144 C84.2 141.8 84.2 141.8 83.4 139 C82.1 134.1 82.1 134.1 81 133 C80.9 131.3 80.9 129.6 80.9 127.9 C80.9 127 81 126.1 81 125.2 C81 124.4 81 123.7 81 123 C80.3 123 79.7 123 79 123 C78.9 122.3 78.9 121.6 78.8 120.8 C78.7 119.9 78.6 119 78.6 118.1 C78.5 117.6 78.5 117.6 78.3 115.3 C78 113 78 113 77 112 C76.8 110.4 76.8 110.4 76.7 108.4 C76.7 108.1 76.7 108.1 76.6 106.3 C76.5 104.8 76.5 103.2 76.4 101.7 C76.4 101.4 76.4 101.4 76.3 99.6 C76.3 98.9 76.2 98.2 76.2 97.6 C76 96 76 96 75 95 C74.9 93.6 74.9 92.3 74.9 90.9 C74.9 90.2 75 89.5 75 88.7 C75 88.1 75 87.6 75 87 C74.3 87 73.7 87 73 87 C72.9 86.4 72.9 85.9 72.8 85.3 C72.7 84.6 72.6 83.8 72.6 83.1 C72.5 82.3 72.4 81.6 72.3 80.8 C72 79 72 79 71 78 C70.9 76.2 70.8 74.5 70.8 72.7 C70.7 71.7 70.7 70.6 70.7 69.5 C70.6 67.2 70.5 64.9 70.5 62.7 C70.4 61.6 70.4 60.5 70.4 59.4 C70.4 58.4 70.3 57.4 70.3 56.4 C70 54 70 54 68 52 C67.9 50.1 67.9 50.1 68 47.8 C68 47 68 46.2 68.1 45.3 C68.1 43.6 68.2 41.8 68.3 40.1 C68.6 32.9 68.6 32.9 66.2 29.9 C62.2 26.7 57 27.3 52.1 27.4 C41.2 27.4 41.2 27.4 37.7 25.5 C32.2 22.7 25.2 23.5 19.1 23.4 C17.1 23.3 15.1 23.3 13.1 23.3 C11.8 23.2 10.6 23.2 9.4 23.2 C5.1 23.1 5.1 23.1 4 22 C2.8 21.8 1.7 21.6 0.5 21.5 C-2.9 21.1 -2.9 21.1 -4 20 C-7 19.8 -9.9 19.6 -12.9 19.5 C-16.3 19 -18.2 18 -21 16 C-23.1 13 -23.5 10.6 -23 7 C-17.7 0.7 -7.5 -3.7 0 0 Z " transform="translate(78,362)"/></g></svg>