<?xml version="1.0" encoding="UTF-8"?>
<svg xmlns="http://www.w3.org/2000/svg" width="210mm" height="297mm" viewBox="0 0 210 297">
  <title>ORCHESTRATE &amp; DOMINATE – Skizzenbogen GEBÄUDE</title>
  <desc>Druckvorlage A4, in 100 % / Tatsächliche Größe drucken. Hellblaue Hilfslinien (#86c5e6) werden beim Scannen entfernt, schwarze Passermarken dienen dem Ausrichten. Siehe docs/03_ART_UND_ASSET_BIBEL.md.</desc>
  <rect x="0" y="0" width="210" height="297" fill="#ffffff"/>
  <g font-family="IBM Plex Mono, Menlo, Consolas, monospace" fill="#86c5e6">
    <text x="15" y="16" font-size="4.2" font-weight="700">ORCHESTRATE &amp; DOMINATE · SKIZZENBOGEN GEBÄUDE</text>
    <text x="15" y="21.5" font-size="2.6">Grundfläche: 1 Kachel = 20 mm (punktiertes Raster) · darüber Höhenzugabe (Vogelschau, Fassade schräg von vorn)</text>
    <text x="15" y="28" font-size="2.6">Bogen-Nr. ______   Datum ____________   Stifte ______________________</text>
  </g>
  <g stroke="#221d17" stroke-width="0.3" fill="none">
    <circle cx="8" cy="8" r="2.5"/><line x1="4" y1="8" x2="12" y2="8"/><line x1="8" y1="4" x2="8" y2="12"/>
    <circle cx="202" cy="8" r="2.5"/><line x1="198" y1="8" x2="206" y2="8"/><line x1="202" y1="4" x2="202" y2="12"/>
    <circle cx="8" cy="289" r="2.5"/><line x1="4" y1="289" x2="12" y2="289"/><line x1="8" y1="285" x2="8" y2="293"/>
    <circle cx="202" cy="289" r="2.5"/><line x1="198" y1="289" x2="206" y2="289"/><line x1="202" y1="285" x2="202" y2="293"/>
  </g>
  <g stroke="#86c5e6" stroke-width="0.3" fill="none">
    <rect x="15" y="36" width="60" height="90" rx="1.2"/>
    <line x1="15" y1="66" x2="75" y2="66" stroke-dasharray="2 1"/>
    <line x1="35" y1="66" x2="35" y2="126" stroke-dasharray="0.6 1.2"/>
    <line x1="15" y1="86" x2="75" y2="86" stroke-dasharray="0.6 1.2"/>
    <line x1="55" y1="66" x2="55" y2="126" stroke-dasharray="0.6 1.2"/>
    <line x1="15" y1="106" x2="75" y2="106" stroke-dasharray="0.6 1.2"/>
    <line x1="15" y1="126" x2="75" y2="126" stroke-width="0.6"/>
    <line x1="24" y1="130.5" x2="75" y2="130.5"/>
    <rect x="85" y="36" width="60" height="90" rx="1.2"/>
    <line x1="85" y1="66" x2="145" y2="66" stroke-dasharray="2 1"/>
    <line x1="105" y1="66" x2="105" y2="126" stroke-dasharray="0.6 1.2"/>
    <line x1="85" y1="86" x2="145" y2="86" stroke-dasharray="0.6 1.2"/>
    <line x1="125" y1="66" x2="125" y2="126" stroke-dasharray="0.6 1.2"/>
    <line x1="85" y1="106" x2="145" y2="106" stroke-dasharray="0.6 1.2"/>
    <line x1="85" y1="126" x2="145" y2="126" stroke-width="0.6"/>
    <line x1="94" y1="130.5" x2="145" y2="130.5"/>
    <rect x="155" y="36" width="40" height="60" rx="1.2"/>
    <line x1="155" y1="56" x2="195" y2="56" stroke-dasharray="2 1"/>
    <line x1="175" y1="56" x2="175" y2="96" stroke-dasharray="0.6 1.2"/>
    <line x1="155" y1="76" x2="195" y2="76" stroke-dasharray="0.6 1.2"/>
    <line x1="155" y1="96" x2="195" y2="96" stroke-width="0.6"/>
    <line x1="164" y1="100.5" x2="195" y2="100.5"/>
    <rect x="15.0" y="138" width="40" height="60" rx="1.2"/>
    <line x1="15.0" y1="158" x2="55.0" y2="158" stroke-dasharray="2 1"/>
    <line x1="35.0" y1="158" x2="35.0" y2="198" stroke-dasharray="0.6 1.2"/>
    <line x1="15.0" y1="178" x2="55.0" y2="178" stroke-dasharray="0.6 1.2"/>
    <line x1="15.0" y1="198" x2="55.0" y2="198" stroke-width="0.6"/>
    <line x1="24.0" y1="202.5" x2="55.0" y2="202.5"/>
    <rect x="61.67" y="138" width="40" height="60" rx="1.2"/>
    <line x1="61.67" y1="158" x2="101.67" y2="158" stroke-dasharray="2 1"/>
    <line x1="81.67" y1="158" x2="81.67" y2="198" stroke-dasharray="0.6 1.2"/>
    <line x1="61.67" y1="178" x2="101.67" y2="178" stroke-dasharray="0.6 1.2"/>
    <line x1="61.67" y1="198" x2="101.67" y2="198" stroke-width="0.6"/>
    <line x1="70.67" y1="202.5" x2="101.67" y2="202.5"/>
    <rect x="108.33" y="138" width="40" height="60" rx="1.2"/>
    <line x1="108.33" y1="158" x2="148.32999999999998" y2="158" stroke-dasharray="2 1"/>
    <line x1="128.32999999999998" y1="158" x2="128.32999999999998" y2="198" stroke-dasharray="0.6 1.2"/>
    <line x1="108.33" y1="178" x2="148.32999999999998" y2="178" stroke-dasharray="0.6 1.2"/>
    <line x1="108.33" y1="198" x2="148.32999999999998" y2="198" stroke-width="0.6"/>
    <line x1="117.33" y1="202.5" x2="148.32999999999998" y2="202.5"/>
    <rect x="155.0" y="138" width="40" height="60" rx="1.2"/>
    <line x1="155.0" y1="158" x2="195.0" y2="158" stroke-dasharray="2 1"/>
    <line x1="175.0" y1="158" x2="175.0" y2="198" stroke-dasharray="0.6 1.2"/>
    <line x1="155.0" y1="178" x2="195.0" y2="178" stroke-dasharray="0.6 1.2"/>
    <line x1="155.0" y1="198" x2="195.0" y2="198" stroke-width="0.6"/>
    <line x1="164.0" y1="202.5" x2="195.0" y2="202.5"/>
    <rect x="15" y="210" width="20" height="30" rx="1.2"/>
    <line x1="15" y1="220" x2="35" y2="220" stroke-dasharray="2 1"/>
    <line x1="15" y1="240" x2="35" y2="240" stroke-width="0.6"/>
    <line x1="24" y1="244.5" x2="35" y2="244.5"/>
    <rect x="47" y="210" width="20" height="30" rx="1.2"/>
    <line x1="47" y1="220" x2="67" y2="220" stroke-dasharray="2 1"/>
    <line x1="47" y1="240" x2="67" y2="240" stroke-width="0.6"/>
    <line x1="56" y1="244.5" x2="67" y2="244.5"/>
    <rect x="79" y="210" width="20" height="30" rx="1.2"/>
    <line x1="79" y1="220" x2="99" y2="220" stroke-dasharray="2 1"/>
    <line x1="79" y1="240" x2="99" y2="240" stroke-width="0.6"/>
    <line x1="88" y1="244.5" x2="99" y2="244.5"/>
    <rect x="111" y="210" width="20" height="30" rx="1.2"/>
    <line x1="111" y1="220" x2="131" y2="220" stroke-dasharray="2 1"/>
    <line x1="111" y1="240" x2="131" y2="240" stroke-width="0.6"/>
    <line x1="120" y1="244.5" x2="131" y2="244.5"/>
    <rect x="143" y="210" width="20" height="30" rx="1.2"/>
    <line x1="143" y1="220" x2="163" y2="220" stroke-dasharray="2 1"/>
    <line x1="143" y1="240" x2="163" y2="240" stroke-width="0.6"/>
    <line x1="152" y1="244.5" x2="163" y2="244.5"/>
    <rect x="175" y="210" width="20" height="30" rx="1.2"/>
    <line x1="175" y1="220" x2="195" y2="220" stroke-dasharray="2 1"/>
    <line x1="175" y1="240" x2="195" y2="240" stroke-width="0.6"/>
    <line x1="184" y1="244.5" x2="195" y2="244.5"/>
    <rect x="15" y="252" width="180" height="24" rx="1.2" stroke-dasharray="1 1"/>
  </g>
  <g font-family="IBM Plex Mono, Menlo, Consolas, monospace" fill="#86c5e6">
    <text x="16.5" y="39.6" font-size="2.1">3×3 · Höhe</text>
    <text x="16.5" y="69.4" font-size="1.9">Grundfläche</text>
    <text x="15" y="130.2" font-size="2.1">ID</text>
    <text x="86.5" y="39.6" font-size="2.1">3×3 · Höhe</text>
    <text x="86.5" y="69.4" font-size="1.9">Grundfläche</text>
    <text x="85" y="130.2" font-size="2.1">ID</text>
    <text x="156.5" y="39.6" font-size="2.1">2×2 · Höhe</text>
    <text x="156.5" y="59.4" font-size="1.9">Grundfläche</text>
    <text x="155" y="100.2" font-size="2.1">ID</text>
    <text x="16.5" y="141.6" font-size="2.1">2×2 · Höhe</text>
    <text x="16.5" y="161.4" font-size="1.9">Grundfläche</text>
    <text x="15.0" y="202.2" font-size="2.1">ID</text>
    <text x="63.17" y="141.6" font-size="2.1">2×2 · Höhe</text>
    <text x="63.17" y="161.4" font-size="1.9">Grundfläche</text>
    <text x="61.67" y="202.2" font-size="2.1">ID</text>
    <text x="109.83" y="141.6" font-size="2.1">2×2 · Höhe</text>
    <text x="109.83" y="161.4" font-size="1.9">Grundfläche</text>
    <text x="108.33" y="202.2" font-size="2.1">ID</text>
    <text x="156.5" y="141.6" font-size="2.1">2×2 · Höhe</text>
    <text x="156.5" y="161.4" font-size="1.9">Grundfläche</text>
    <text x="155.0" y="202.2" font-size="2.1">ID</text>
    <text x="16.5" y="213.6" font-size="2.1">1×1 · Höhe</text>
    <text x="16.5" y="223.4" font-size="1.9">Grundfläche</text>
    <text x="15" y="244.2" font-size="2.1">ID</text>
    <text x="48.5" y="213.6" font-size="2.1">1×1 · Höhe</text>
    <text x="48.5" y="223.4" font-size="1.9">Grundfläche</text>
    <text x="47" y="244.2" font-size="2.1">ID</text>
    <text x="80.5" y="213.6" font-size="2.1">1×1 · Höhe</text>
    <text x="80.5" y="223.4" font-size="1.9">Grundfläche</text>
    <text x="79" y="244.2" font-size="2.1">ID</text>
    <text x="112.5" y="213.6" font-size="2.1">1×1 · Höhe</text>
    <text x="112.5" y="223.4" font-size="1.9">Grundfläche</text>
    <text x="111" y="244.2" font-size="2.1">ID</text>
    <text x="144.5" y="213.6" font-size="2.1">1×1 · Höhe</text>
    <text x="144.5" y="223.4" font-size="1.9">Grundfläche</text>
    <text x="143" y="244.2" font-size="2.1">ID</text>
    <text x="176.5" y="213.6" font-size="2.1">1×1 · Höhe</text>
    <text x="176.5" y="223.4" font-size="1.9">Grundfläche</text>
    <text x="175" y="244.2" font-size="2.1">ID</text>
    <text x="17" y="256" font-size="2.3">Notizen / Varianten</text>
  </g>
  <g stroke="#86c5e6" stroke-width="0.3" fill="none">
    <line x1="140" y1="27.2" x2="150" y2="27.2"/><line x1="140" y1="25.7" x2="140" y2="28.7"/><line x1="150" y1="25.7" x2="150" y2="28.7"/>
  </g>
  <text x="152" y="28.099999999999998" font-family="IBM Plex Mono, Menlo, Consolas, monospace" font-size="2.4" fill="#86c5e6">= 10 mm (Druckkontrolle)</text>
  <g font-family="IBM Plex Mono, Menlo, Consolas, monospace" font-size="2.1" fill="#86c5e6">
    <text x="15" y="281.5">Nur schwarze Tusche · Kontur 0,8–1,2 mm · Details 0,3–0,5 mm · Schatten nur rechts (Licht von oben links)</text>
    <text x="15" y="284.7">Vorderkante auf der dicken Linie · nichts über den Rahmen · ID eintragen · Passermarken frei lassen</text>
  </g>
</svg>
