<svg xmlns="http://www.w3.org/2000/svg" viewBox="0 0 400 400" width="400" height="400" xmlns:c2pa="http://c2pa.org/manifest"><metadata><c2pa:manifest>AAAWgmp1bWIAAAAeanVtZGMycGEAEQAQgAAAqgA4m3EDYzJwYQAAABZcanVtYgAAAEdqdW1kYzJtYQARABCAAACqADibcQN1cm46YzJwYTo1ZDU5YzE5MS0zNzA5LTQyZTMtODAyYS03MGFkNjExMjA5ZjAAAAADl2p1bWIAAAApanVtZGMyYXMAEQAQgAAAqgA4m3EDYzJwYS5hc3NlcnRpb25zAAAAALxqdW1iAAAARGp1bWRjYm9yABEAEIAAAKoAOJtxE2MycGEuaW5ncmVkaWVudC52MwAAAAAYYzJzaGpIhpZT9ezziv4+YE16GIAAAABwY2JvcqNpZGM6Zm9ybWF0bWltYWdlL3N2Zyt4bWxqaW5zdGFuY2VJRHgseG1wOmlpZDo5NmYxZWFmOS0yOGUzLTQwOTMtYjMyZC03YTgxODk4ZmM4MTZscmVsYXRpb25zaGlwaHBhcmVudE9mAAAB4mp1bWIAAABBanVtZGNib3IAEQAQgAAAqgA4m3ETYzJwYS5hY3Rpb25zLnYyAAAAABhjMnNoyq8CkPtNxUV5s1zFSqWmJwAAAZljYm9yomdhY3Rpb25zgqJmYWN0aW9ua2MycGEub3BlbmVkanBhcmFtZXRlcnOha2luZ3JlZGllbnRzgaJjdXJseC1zZWxmI2p1bWJmPWMycGEuYXNzZXJ0aW9ucy9jMnBhLmluZ3JlZGllbnQudjNkaGFzaFggDn1bo28sDCZkrSKY51dU0gAeSvX9L0zhLFsTfSd+xvakZmFjdGlvbngdY29tLmFudGhyb3BpYy5jbGF1ZGUucHJvdmlkZWRqcGFyYW1ldGVyc6F4H2NvbS5hbnRocm9waWMub3JpZ2luLWNvbmZpZGVuY2VndW5rbm93bmtkZXNjcmlwdGlvbnhmQ2xhdWRlIHByb3ZpZGVkIHRoaXMgZmlsZSBhdCB0aGUgcmVxdWVzdCBvZiBhIHVzZXIgYW5kIG1heSBoYXZlIGNyZWF0ZWQgb3IgbW9kaWZpZWQgdGhlIGZpbGUgY29udGVudHMubXNvZnR3YXJlQWdlbnShZG5hbWVmQ2xhdWRlcmFsbEFjdGlvbnNJbmNsdWRlZPUAAADIanVtYgAAAEBqdW1kY2JvcgARABCAAACqADibcRNjMnBhLmhhc2guZGF0YQAAAAAYYzJzaDaRub8mIoRQwrvMc+39wx0AAACAY2JvcqVjYWxnZnNoYTI1NmNwYWRNAAAAAAAAAAAAAAAAAGRoYXNoWCAZt+m3t4e6BCJlcglSZ2Yo+/8D2dGPlHzEqc3fMylDJmRuYW1lbmp1bWJmIG1hbmlmZXN0amV4Y2x1c2lvbnOBomVzdGFydBiWZmxlbmd0aBkeBAAAAj5qdW1iAAAAJ2p1bWRjMmNsABEAEIAAAKoAOJtxA2MycGEuY2xhaW0udjIAAAACD2Nib3KlY2FsZ2ZzaGEyNTZpc2lnbmF0dXJleE1zZWxmI2p1bWJmPS9jMnBhL3VybjpjMnBhOjVkNTljMTkxLTM3MDktNDJlMy04MDJhLTcwYWQ2MTEyMDlmMC9jMnBhLnNpZ25hdHVyZWppbnN0YW5jZUlEeCx4bXA6aWlkOjhlODk3YjQ4LTBjZDctNDcxOS05Yzc5LWM5OTM2NmYzYjU4OXJjcmVhdGVkX2Fzc2VydGlvbnODomN1cmx4LXNlbGYjanVtYmY9YzJwYS5hc3NlcnRpb25zL2MycGEuaW5ncmVkaWVudC52M2RoYXNoWCAOfVujbywMJmStIpjnV1TSAB5K9f0vTOEsWxN9J37G9qJjdXJseCpzZWxmI2p1bWJmPWMycGEuYXNzZXJ0aW9ucy9jMnBhLmFjdGlvbnMudjJkaGFzaFggc4eK72VJ9iWT5lclug6sBQLCe87z/sAxImbg3kxL08GiY3VybHgpc2VsZiNqdW1iZj1jMnBhLmFzc2VydGlvbnMvYzJwYS5oYXNoLmRhdGFkaGFzaFggyMsZ/OyIq5DaBPzdfXHduOke4gdKfcz26/JuAw+s4lZ0Y2xhaW1fZ2VuZXJhdG9yX2luZm+jZG5hbWVvQW50aHJvcGljIEZpbGVzZ3ZlcnNpb25lMS4wLjBrc3BlY1ZlcnNpb25lMi40LjAAABA4anVtYgAAAChqdW1kYzJjcwARABCAAACqADibcQNjMnBhLnNpZ25hdHVyZQAAABAIY2JvctKEWQISogEmGCFZAgowggIGMIIBjaADAgECAhRA5aAK7sI50L64g/oGQgU9Z1UTADAKBggqhkjOPQQDAzBJMRcwFQYDVQQKEw5BbnRocm9waWMsIFBCQzEuMCwGA1UEAxMlQW50aHJvcGljIENvbnRlbnQgQ3JlZGVudGlhbHMgUm9vdCBDQTAeFw0yNjA4MDcxODQzNTZaFw0yODA4MDYxOTQzNTZaMEQxFzAVBgNVBAoTDkFudGhyb3BpYywgUEJDMSkwJwYDVQQDEyBBbnRocm9waWMgQ2xhdWRlIENvbnRlbnQgU2lnbmluZzBZMBMGByqGSM49AgEGCCqGSM49AwEHA0IABJh6CmvLUBgFFNU0vUKlOVtE6djd17L5SuwX0LemFisBM3dkd/3cyjxFA3Qo5S46fX0/ihY0VZ7mfb9KF703t5OjWDBWMA4GA1UdDwEB/wQEAwIHgDAVBgNVHSUEDjAMBgorBgEEAYPoXgIBMAwGA1UdEwEB/wQCMAAwHwYDVR0jBBgwFoAUzlHiBIFOZFsj+OPEz5o+nMHXXMIwCgYIKoZIzj0EAwMDZwAwZAIwMXMdFJ4BetLLVY7ORuE9noqbbAZOZn/aArXyTwFAZfKrPzxF2vPoJNf1+UCdg1XGAjBwX1zd9WGqYkqmL5SFqw1QySjr1zJfpJM9+1rdDwSPLMOPOjKuiXjoU/pUUeG9RwmhY3BhZFkNngAAAAAAAAAAAAAAAAAAAAAAAAAAAAAAAAAAAAAAAAAAAAAAAAAAAAAAAAAAAAAAAAAAAAAAAAAAAAAAAAAAAAAAAAAAAAAAAAAAAAAAAAAAAAAAAAAAAAAAAAAAAAAAAAAAAAAAAAAAAAAAAAAAAAAAAAAAAAAAAAAAAAAAAAAAAAAAAAAAAAAAAAAAAAAAAAAAAAAAAAAAAAAAAAAAAAAAAAAAAAAAAAAAAAAAAAAAAAAAAAAAAAAAAAAAAAAAAAAAAAAAAAAAAAAAAAAAAAAAAAAAAAAAAAAAAAAAAAAAAAAAAAAAAAAAAAAAAAAAAAAAAAAAAAAAAAAAAAAAAAAAAAAAAAAAAAAAAAAAAAAAAAAAAAAAAAAAAAAAAAAAAAAAAAAAAAAAAAAAAAAAAAAAAAAAAAAAAAAAAAAAAAAAAAAAAAAAAAAAAAAAAAAAAAAAAAAAAAAAAAAAAAAAAAAAAAAAAAAAAAAAAAAAAAAAAAAAAAAAAAAAAAAAAAAAAAAAAAAAAAAAAAAAAAAAAAAAAAAAAAAAAAAAAAAAAAAAAAAAAAAAAAAAAAAAAAAAAAAAAAAAAAAAAAAAAAAAAAAAAAAAAAAAAAAAAAAAAAAAAAAAAAAAAAAAAAAAAAAAAAAAAAAAAAAAAAAAAAAAAAAAAAAAAAAAAAAAAAAAAAAAAAAAAAAAAAAAAAAAAAAAAAAAAAAAAAAAAAAAAAAAAAAAAAAAAAAAAAAAAAAAAAAAAAAAAAAAAAAAAAAAAAAAAAAAAAAAAAAAAAAAAAAAAAAAAAAAAAAAAAAAAAAAAAAAAAAAAAAAAAAAAAAAAAAAAAAAAAAAAAAAAAAAAAAAAAAAAAAAAAAAAAAAAAAAAAAAAAAAAAAAAAAAAAAAAAAAAAAAAAAAAAAAAAAAAAAAAAAAAAAAAAAAAAAAAAAAAAAAAAAAAAAAAAAAAAAAAAAAAAAAAAAAAAAAAAAAAAAAAAAAAAAAAAAAAAAAAAAAAAAAAAAAAAAAAAAAAAAAAAAAAAAAAAAAAAAAAAAAAAAAAAAAAAAAAAAAAAAAAAAAAAAAAAAAAAAAAAAAAAAAAAAAAAAAAAAAAAAAAAAAAAAAAAAAAAAAAAAAAAAAAAAAAAAAAAAAAAAAAAAAAAAAAAAAAAAAAAAAAAAAAAAAAAAAAAAAAAAAAAAAAAAAAAAAAAAAAAAAAAAAAAAAAAAAAAAAAAAAAAAAAAAAAAAAAAAAAAAAAAAAAAAAAAAAAAAAAAAAAAAAAAAAAAAAAAAAAAAAAAAAAAAAAAAAAAAAAAAAAAAAAAAAAAAAAAAAAAAAAAAAAAAAAAAAAAAAAAAAAAAAAAAAAAAAAAAAAAAAAAAAAAAAAAAAAAAAAAAAAAAAAAAAAAAAAAAAAAAAAAAAAAAAAAAAAAAAAAAAAAAAAAAAAAAAAAAAAAAAAAAAAAAAAAAAAAAAAAAAAAAAAAAAAAAAAAAAAAAAAAAAAAAAAAAAAAAAAAAAAAAAAAAAAAAAAAAAAAAAAAAAAAAAAAAAAAAAAAAAAAAAAAAAAAAAAAAAAAAAAAAAAAAAAAAAAAAAAAAAAAAAAAAAAAAAAAAAAAAAAAAAAAAAAAAAAAAAAAAAAAAAAAAAAAAAAAAAAAAAAAAAAAAAAAAAAAAAAAAAAAAAAAAAAAAAAAAAAAAAAAAAAAAAAAAAAAAAAAAAAAAAAAAAAAAAAAAAAAAAAAAAAAAAAAAAAAAAAAAAAAAAAAAAAAAAAAAAAAAAAAAAAAAAAAAAAAAAAAAAAAAAAAAAAAAAAAAAAAAAAAAAAAAAAAAAAAAAAAAAAAAAAAAAAAAAAAAAAAAAAAAAAAAAAAAAAAAAAAAAAAAAAAAAAAAAAAAAAAAAAAAAAAAAAAAAAAAAAAAAAAAAAAAAAAAAAAAAAAAAAAAAAAAAAAAAAAAAAAAAAAAAAAAAAAAAAAAAAAAAAAAAAAAAAAAAAAAAAAAAAAAAAAAAAAAAAAAAAAAAAAAAAAAAAAAAAAAAAAAAAAAAAAAAAAAAAAAAAAAAAAAAAAAAAAAAAAAAAAAAAAAAAAAAAAAAAAAAAAAAAAAAAAAAAAAAAAAAAAAAAAAAAAAAAAAAAAAAAAAAAAAAAAAAAAAAAAAAAAAAAAAAAAAAAAAAAAAAAAAAAAAAAAAAAAAAAAAAAAAAAAAAAAAAAAAAAAAAAAAAAAAAAAAAAAAAAAAAAAAAAAAAAAAAAAAAAAAAAAAAAAAAAAAAAAAAAAAAAAAAAAAAAAAAAAAAAAAAAAAAAAAAAAAAAAAAAAAAAAAAAAAAAAAAAAAAAAAAAAAAAAAAAAAAAAAAAAAAAAAAAAAAAAAAAAAAAAAAAAAAAAAAAAAAAAAAAAAAAAAAAAAAAAAAAAAAAAAAAAAAAAAAAAAAAAAAAAAAAAAAAAAAAAAAAAAAAAAAAAAAAAAAAAAAAAAAAAAAAAAAAAAAAAAAAAAAAAAAAAAAAAAAAAAAAAAAAAAAAAAAAAAAAAAAAAAAAAAAAAAAAAAAAAAAAAAAAAAAAAAAAAAAAAAAAAAAAAAAAAAAAAAAAAAAAAAAAAAAAAAAAAAAAAAAAAAAAAAAAAAAAAAAAAAAAAAAAAAAAAAAAAAAAAAAAAAAAAAAAAAAAAAAAAAAAAAAAAAAAAAAAAAAAAAAAAAAAAAAAAAAAAAAAAAAAAAAAAAAAAAAAAAAAAAAAAAAAAAAAAAAAAAAAAAAAAAAAAAAAAAAAAAAAAAAAAAAAAAAAAAAAAAAAAAAAAAAAAAAAAAAAAAAAAAAAAAAAAAAAAAAAAAAAAAAAAAAAAAAAAAAAAAAAAAAAAAAAAAAAAAAAAAAAAAAAAAAAAAAAAAAAAAAAAAAAAAAAAAAAAAAAAAAAAAAAAAAAAAAAAAAAAAAAAAAAAAAAAAAAAAAAAAAAAAAAAAAAAAAAAAAAAAAAAAAAAAAAAAAAAAAAAAAAAAAAAAAAAAAAAAAAAAAAAAAAAAAAAAAAAAAAAAAAAAAAAAAAAAAAAAAAAAAAAAAAAAAAAAAAAAAAAAAAAAAAAAAAAAAAAAAAAAAAAAAAAAAAAAAAAAAAAAAAAAAAAAAAAAAAAAAAAAAAAAAAAAAAAAAAAAAAAAAAAAAAAAAAAAAAAAAAAAAAAAAAAAAAAAAAAAAAAAAAAAAAAAAAAAAAAAAAAAAAAAAAAAAAAAAAAAAAAAAAAAAAAAAAAAAAAAAAAAAAAAAAAAAAAAAAAAAAAAAAAAAAAAAAAAAAAAAAAAAAAAAAAAAAAAAAAAAAAAAAAAAAAAAAAAAAAAAAAAAAAAAAAAAAAAAAAAAAAAAAAAAAAAAAAAAAAAAAAAAAAAAAAAAAAAAAAAAAAAAAAAAAAAAAAAAAAAAAAAAAAAAAAAAAAAAAAAAAAAAAAAAAAAAAAAAAAAAAAAAAAAAAAAAAAAAAAAAAAAAAAAAAAAAAAAAAAAAAAAAAAAAAAAAAAAAAAAAAAAAAAAAAAAAAAAAAAAAAAAAAAAAAAAAAAAAAAAAAAAAAAAAAAAAAAAAAAAAAAAAAAAAAAAAAAAAAAAAAAAAAAAAAAAAAAAAAAAAAAAAAAAAAAAAAAAAAAAAAAAAAAAAAAAAAAAAAAAAAAAAAAAAAAAAAAAAAAAAAAAAAAAAAAAAAAAAAAAAAAAAAAAAAAAAAAAAAAAAAAAAAAAAAAAAAAAAAAAAAAAAAAAAAAAAAAAAAAAAAAAAAAAAAAAAAAAAAAAAAAAAAAAAAAAAAAAAAAAAAAAAAAAAAAAAAAAAAAAAAAAAAAAAAAAAAAAAAAAAAAAAAAAAAAAAAAAAAAAAAAAAAAAAAAAAAAAAAAAAAAAAAAAAAAAAAAAAAAAAAAAAAAAAAAAAAAAAAAAAAAAAAAAAAAAAAAAAAAAAAAAAAAAAAAAAAAAAAAAAAAAAAAAAAAAAAAAAAAAAAAAAAAAAAAAAAAAAAAAAAAAAAAAAAAAAAAAAAAAAAAAAAAAAAAAAAAAAAAAAAAAAAAAAAAAAAAAAAAAAAAAAAAAAAAAAAAAAAAAAAAAAAAAAAAAAAAAAAAAAAAAAAAAAAAAAAAAAAAAAAAAAAAAAAAAAAAAAAAAAAAAAAAAAAAAAAAAAAAAAAAAAAAAAAAAAAAAAAAAAAAAAAAAAAAAAAAAAAAAAAAAAAAAAAAAAAAAAAAAAAAAAAAAAAAAAAAAAAAAAAAAAAAAAAAAAAAAAAAAAAAAAAAAAAAAAAAAAAAAAAAAAAAAAAAAAAAAAAAAAAAAAAAAAAAAAAAAAAAAAAAAAAAAAAAAAAAAAAAAAAAAAAAAAAAAAAAAAAAAAAAAAAAAAAAAAAAAAAAAAAAAAAAAAAAAAAAAAAAAAAAAAAAAAAAAAAAAAAAAAAAAAAAAAAAAAAAAAAAAAAAAAAAAAAAAAAAAAAAAAAAAAAAAAAAAAAAAAAAAAAAAAAAAAAAAAAAAAAAAAAAAAAAAAAAAAAAAAAAAAAAAAAAAAAAAAAAAAAAAAAAAAAAAAAAAAAAAAAAAAAAAAAAAAAAAAAAAAAAAAAAAAAAAAAAAAAAAAAAAAAAAAAAAAAAAAAAAAAAAAAAAAAAAAAAAAAAAAAAAAAAAAAAAAAAAAAAAAAAAAAAAAAAAAAAAAAAAAAAAAAAAAAAAAAPZYQF2dwacabAl//ZPruZiGSGQM3y/65KjTyROHx1bXU7UuK9ig5JROc+1pHMKiQFKWI1Cj1guYNxovlBgfBLevECM=</c2pa:manifest></metadata><title>E04 SPAMMER V1 (Frame B)</title><g fill="#221d17"><g id="base"><g id="fluegel"><path d="M161.2 316.9Q160.9 324.5 153.4 324.3Q145.8 324 140 323.4Q134.1 322.9 128.3 322Q122.5 321.2 116.7 320.3Q110.9 319.3 105.1 318.5Q99.3 317.6 93.4 317Q87.6 316.3 82.6 315.7Q77.6 315.1 75.3 313.4Q73 311.6 73.7 309.2Q74.3 306.7 75.4 304.2Q76.5 301.7 76.4 296Q76.2 290.3 74.6 287.9Q72.9 285.4 70.3 282.6Q67.6 279.9 63.9 277Q60.1 274.2 55.2 271.6Q50.3 269 49.2 266Q48.1 263 50.3 261.4Q52.5 259.8 57 258.3Q61.5 256.8 64.9 254.7Q68.4 252.6 70.7 250.1Q73.1 247.7 74.4 244.9Q75.7 242.1 76.1 238.8Q76.5 235.6 76.1 231.8Q75.7 228.1 74.5 223.7Q73.4 219.3 74.2 216.4Q75 213.6 78 213.9Q80.9 214.1 85.3 217.6Q89.6 221 93.8 225Q98 228.9 102.2 232.8Q106.5 236.7 110.8 240.5Q115.1 244.4 119.4 248.2Q123.7 252 128.2 255.7Q132.7 259.3 137.3 262.8Q141.8 266.3 146.1 270.2Q150.4 274 155.5 278.7Q160.6 283.3 161.3 290.3Q162 297.3 161.7 303.3Q161.5 309.3 161.2 316.9Z"></path><path d="M250.4 280.6Q249.9 274.1 253.4 268.8Q257 263.6 260.2 258.8Q263.4 254.1 266.5 249.2Q269.6 244.3 272.5 239.3Q275.3 234.3 278.5 229.5Q281.7 224.7 285.1 220Q288.5 215.3 291.8 210.6Q295 205.9 298.2 201Q301.3 196.2 304.6 191.8Q307.8 187.5 310.4 185.9Q313.1 184.3 315.2 187.3Q317.4 190.3 317.1 195Q316.8 199.6 317 203.3Q317.1 207.1 318.2 210.1Q319.2 213.2 321.1 215.6Q323 218 325.9 219.9Q328.7 221.8 332.8 223Q336.8 224.2 341.3 225.2Q345.8 226.2 348.4 227.3Q351.1 228.4 350.3 231.6Q349.5 234.8 346.7 238.5Q343.9 242.2 341.3 245.8Q338.6 249.3 336.9 252.4Q335.3 255.5 334.5 257.7Q333.7 259.9 334.6 264.8Q335.4 269.7 336.6 272.1Q337.8 274.5 339.1 277.2Q340.4 279.8 338.2 282Q336 284.2 330.9 286.4Q325.8 288.5 320.5 290.8Q315.1 293.1 309.7 295.4Q304.3 297.7 299 300Q293.6 302.2 288.1 304.3Q282.7 306.4 277.3 308.7Q271.9 310.9 263.9 312.9Q255.9 315 254 306.9Q252.1 298.9 251.5 293Q250.9 287.1 250.4 280.6Z"></path><path fill="#efe8d6" d="M153.4 286.7Q153 286.6 150.7 284.8Q148.4 283.1 146.1 281.4Q143.8 279.6 141.6 277.8Q139.3 276.1 137 274.3Q134.7 272.6 132.6 270.7Q130.4 268.9 128.3 266.9Q126.2 264.9 124.1 263Q122 261 119.8 259.2Q117.6 257.4 115.3 255.7Q113 254 110.7 252.2Q108.4 250.5 106.2 248.7Q104 246.8 101.8 245Q99.7 243.1 97.6 241.1Q95.5 239.1 93.6 237.1Q91.6 235 89.7 232.8Q87.8 230.6 85.9 228.5Q84 226.3 82 224.2Q80.1 222.1 78.1 220Q76.2 217.9 76 217.5Q75.8 217.1 75.9 216.6Q76.1 216.2 76.5 216Q76.9 215.8 77.3 216Q77.7 216.1 79.9 217.9Q82.2 219.7 84.2 221.8Q86.3 223.8 88.2 225.9Q90.2 228 92.1 230.2Q94 232.3 95.9 234.4Q97.9 236.5 100 238.5Q102.1 240.4 104.3 242.3Q106.4 244.1 108.7 245.9Q110.9 247.7 113.2 249.5Q115.4 251.2 117.7 253Q120 254.7 122.2 256.6Q124.4 258.4 126.5 260.4Q128.5 262.4 130.6 264.3Q132.7 266.3 134.9 268.2Q137 270 139.3 271.7Q141.6 273.5 143.9 275.3Q146.1 277 148.3 278.9Q150.5 280.8 152.5 282.8Q154.5 284.8 154.7 285.2Q154.9 285.6 154.8 286.1Q154.6 286.5 154.2 286.7Q153.8 286.9 153.4 286.7Z"></path><path fill="#efe8d6" d="M154.1 286.1Q153.6 286.2 150.7 285.9Q147.8 285.7 144.8 285.5Q141.9 285.3 138.9 285.2Q136 285 133.1 284.7Q130.2 284.4 127.3 284Q124.4 283.5 121.5 282.9Q118.7 282.3 115.9 281.6Q113 280.8 110.3 279.9Q107.5 279 104.7 277.9Q102 276.8 99.2 275.6Q96.5 274.5 93.7 273.6Q90.9 272.6 88.1 271.9Q85.3 271.2 82.4 270.7Q79.5 270.2 76.7 269.7Q73.8 269.2 70.9 268.6Q68.1 268.1 65.2 267.6Q62.3 267.1 59.5 266.5Q56.6 265.9 53.8 265.1Q51 264.4 50.6 264.1Q50.2 263.9 50.2 263.4Q50.1 263 50.3 262.6Q50.6 262.2 51 262.2Q51.5 262.1 54.4 262.4Q57.3 262.8 60.2 263.2Q63.1 263.6 66 264Q68.9 264.4 71.7 264.8Q74.6 265.3 77.5 265.7Q80.4 266.2 83.3 266.6Q86.2 267.1 89 267.7Q91.8 268.4 94.6 269.3Q97.4 270.3 100.1 271.4Q102.9 272.6 105.6 273.7Q108.3 274.8 111.1 275.8Q113.9 276.8 116.7 277.6Q119.5 278.4 122.4 279Q125.2 279.6 128.1 280.1Q131 280.6 133.9 281Q136.8 281.3 139.7 281.6Q142.6 281.9 145.5 282.2Q148.4 282.6 151.3 283.2Q154.1 283.9 154.5 284.2Q154.8 284.4 154.9 284.8Q155 285.3 154.8 285.7Q154.5 286 154.1 286.1Z"></path><path fill="#efe8d6" d="M154.6 289.4Q154.3 289.6 152.1 290.3Q150 291 147.7 291.4Q145.5 291.8 143.2 292.1Q140.9 292.5 138.7 293Q136.5 293.4 134.2 293.9Q132 294.3 129.8 294.8Q127.6 295.3 125.4 295.9Q123.2 296.6 121.1 297.4Q119 298.3 116.9 299.3Q114.8 300.4 112.8 301.4Q110.7 302.5 108.6 303.3Q106.5 304.1 104.3 304.8Q102.1 305.5 100 306.2Q97.8 306.8 95.6 307.5Q93.4 308.1 91.2 308.7Q89 309.3 86.8 309.8Q84.6 310.4 82.4 310.9Q80.2 311.4 78 311.9Q75.7 312.3 75.3 312.3Q75 312.2 74.7 311.9Q74.5 311.6 74.5 311.2Q74.6 310.9 74.9 310.6Q75.2 310.4 77.3 309.6Q79.4 308.8 81.6 308.1Q83.8 307.4 85.9 306.7Q88.1 306.1 90.3 305.4Q92.4 304.7 94.6 304Q96.8 303.3 98.9 302.6Q101.1 301.9 103.2 301.1Q105.4 300.4 107.5 299.5Q109.6 298.6 111.6 297.4Q113.7 296.3 115.7 295.2Q117.8 294.1 119.9 293.2Q122 292.3 124.2 291.7Q126.4 291.1 128.6 290.7Q130.8 290.3 133.1 290Q135.4 289.7 137.7 289.4Q139.9 289.1 142.3 288.9Q144.6 288.7 146.9 288.5Q149.2 288.3 151.5 288Q153.7 287.7 154.1 287.7Q154.5 287.8 154.7 288.1Q155 288.4 154.9 288.8Q154.9 289.2 154.6 289.4Z"></path><path fill="#efe8d6" d="M254.4 274.1Q254.5 273.7 255.9 271.2Q257.3 268.7 258.8 266.3Q260.3 263.8 261.8 261.4Q263.2 258.9 264.7 256.4Q266.1 254 267.5 251.5Q268.9 249 270.4 246.6Q271.9 244.1 273.5 241.7Q275.1 239.4 276.9 237.2Q278.7 234.9 280.6 232.8Q282.5 230.6 284.4 228.5Q286.3 226.3 288.1 224.1Q290 221.9 291.7 219.6Q293.4 217.3 295.1 215Q296.7 212.7 298.3 210.3Q299.9 207.9 301.5 205.5Q303 203.1 304.4 200.7Q305.9 198.2 307.4 195.7Q308.8 193.3 310.5 191Q312.2 188.7 312.5 188.4Q312.9 188.2 313.3 188.3Q313.7 188.4 314 188.7Q314.2 189.1 314.1 189.5Q314 189.9 312.7 192.5Q311.3 195 310 197.5Q308.7 200.1 307.3 202.6Q305.9 205.1 304.5 207.6Q303 210 301.4 212.4Q299.8 214.8 298.2 217.1Q296.6 219.5 294.9 221.8Q293.2 224.1 291.4 226.3Q289.6 228.6 287.7 230.7Q285.8 232.9 283.9 235Q282 237.2 280.2 239.4Q278.3 241.6 276.7 243.9Q275.1 246.3 273.5 248.7Q272 251.1 270.6 253.6Q269.1 256 267.6 258.5Q266.2 260.9 264.6 263.3Q263.1 265.7 261.4 268.1Q259.8 270.4 258.1 272.7Q256.3 274.9 255.9 275.1Q255.6 275.4 255.2 275.3Q254.8 275.2 254.5 274.9Q254.3 274.5 254.4 274.1Z"></path><path fill="#efe8d6" d="M254.7 274Q255 273.7 257.5 272.2Q260 270.7 262.6 269.3Q265.1 267.8 267.7 266.4Q270.2 264.9 272.8 263.5Q275.3 262.1 277.9 260.7Q280.4 259.3 282.9 257.8Q285.5 256.4 288.1 255Q290.6 253.6 293.3 252.4Q295.9 251.1 298.6 250Q301.3 248.9 304 247.8Q306.7 246.7 309.3 245.4Q312 244.2 314.6 242.9Q317.2 241.6 319.8 240.3Q322.4 239 325 237.7Q327.7 236.5 330.4 235.3Q333.1 234.2 335.8 233.1Q338.5 232 341.2 230.9Q343.9 229.8 346.6 228.8Q349.4 227.7 349.8 227.7Q350.2 227.7 350.5 227.9Q350.8 228.2 350.9 228.7Q350.9 229.1 350.6 229.4Q350.3 229.7 347.8 231.1Q345.2 232.5 342.5 233.7Q339.9 234.9 337.2 236.1Q334.5 237.2 331.8 238.4Q329.2 239.5 326.5 240.7Q323.9 242 321.3 243.3Q318.7 244.6 316.1 246Q313.6 247.4 311 248.8Q308.4 250.1 305.7 251.3Q303.1 252.6 300.4 253.8Q297.8 255 295.2 256.3Q292.6 257.7 290 259Q287.4 260.4 284.9 261.8Q282.3 263.1 279.7 264.5Q277.1 265.8 274.5 267.1Q271.9 268.4 269.3 269.7Q266.6 270.9 264 272.2Q261.4 273.5 258.7 274.6Q256 275.7 255.6 275.7Q255.1 275.8 254.8 275.5Q254.5 275.2 254.5 274.8Q254.5 274.4 254.7 274Z"></path><path fill="#efe8d6" d="M253.8 273.4Q254.1 273.3 256.4 273Q258.7 272.8 261 272.3Q263.4 271.9 265.7 271.5Q268 271 270.3 270.8Q272.6 270.5 274.9 270.4Q277.2 270.3 279.4 270.4Q281.7 270.5 284 270.6Q286.3 270.8 288.6 270.9Q290.9 271.1 293.2 271.2Q295.4 271.3 297.7 271.4Q300 271.5 302.3 271.7Q304.6 271.8 306.9 271.9Q309.2 272 311.4 272.1Q313.7 272.3 316 272.5Q318.3 272.7 320.6 273.1Q322.8 273.5 325.1 274Q327.4 274.5 329.7 275Q331.9 275.5 334.2 275.9Q336.5 276.3 336.8 276.5Q337.1 276.6 337.3 277Q337.4 277.3 337.2 277.6Q337.1 278 336.8 278.1Q336.4 278.2 334.1 278.2Q331.8 278.2 329.6 277.9Q327.3 277.6 325 277.3Q322.7 276.9 320.4 276.7Q318.2 276.5 315.9 276.4Q313.6 276.3 311.3 276.2Q309 276.2 306.7 276.1Q304.4 276 302.1 275.9Q299.9 275.7 297.6 275.5Q295.3 275.3 293 275.1Q290.7 274.9 288.4 274.7Q286.2 274.5 283.9 274.3Q281.6 274.1 279.3 273.9Q277 273.8 274.7 273.8Q272.4 273.8 270.1 274Q267.9 274.2 265.5 274.5Q263.2 274.9 260.9 275.1Q258.6 275.4 256.4 275.3Q254.1 275.2 253.7 275.1Q253.4 274.9 253.3 274.6Q253.2 274.2 253.3 273.9Q253.5 273.6 253.8 273.4Z"></path></g><g id="umschlag"><path d="M143.8 284.5Q143.5 277.8 147 273.7Q150.5 269.5 157 268.4Q163.6 267.3 169.8 266.3Q175.9 265.2 182.1 264Q188.3 262.9 194.5 261.7Q200.6 260.5 206.8 259.4Q213 258.3 219.2 257.3Q225.4 256.4 231.6 255.4Q237.8 254.4 245.2 253.6Q252.7 252.9 258.6 257Q264.5 261.1 265.7 268.6Q266.9 276 266.9 282.2Q266.9 288.4 267.1 294.5Q267.3 300.7 268.3 306.8Q269.2 312.9 270.5 320.1Q271.8 327.4 267.6 333.2Q263.5 339 256 340.2Q248.4 341.5 242.2 342.3Q236 343.1 229.8 343.9Q223.6 344.6 217.4 345.4Q211.1 346.2 204.9 346.9Q198.7 347.6 192.5 348.5Q186.3 349.3 180.1 350.1Q173.8 350.9 166.2 351.5Q158.6 352 153.4 347.2Q148.1 342.4 147.4 335.2Q146.8 327.9 146.4 321.8Q146 315.6 145.6 309.5Q145.2 303.3 144.6 297.2Q144.1 291.1 143.8 284.5Z"></path><path fill="#efe8d6" d="M153.9 285.1Q152.9 280.5 153.9 278.8Q154.8 277.2 159.7 276.8Q164.7 276.3 170.9 275.2Q177 274 183.2 272.8Q189.4 271.6 195.5 270.4Q201.7 269.1 207.8 267.9Q214 266.6 220.2 265.5Q226.3 264.3 232.5 263.2Q238.7 262.1 244.6 261.5Q250.4 261 252.8 263.7Q255.2 266.3 255.2 271.9Q255.2 277.4 255.3 283.6Q255.4 289.8 255.6 296Q255.8 302.1 256.6 308.2Q257.4 314.3 258 319Q258.7 323.7 257.4 324.8Q256.1 325.9 251.3 326.1Q246.6 326.4 240.4 327.2Q234.2 328 228 328.9Q221.8 329.8 215.6 330.7Q209.4 331.7 203.1 332.5Q196.9 333.3 190.7 334.1Q184.5 334.9 178.3 335.5Q172 336.2 167.3 337Q162.5 337.9 160.6 337.2Q158.7 336.4 158.1 331.5Q157.5 326.6 157.2 320.4Q156.8 314.3 156.4 308.1Q156 302 155.5 295.9Q155 289.7 153.9 285.1Z"></path><path d="M156 280.6Q150.5 275.9 157.1 273Q163.8 270.1 169.6 269.1Q175.3 268.2 180.9 267.5Q186.5 266.7 192.2 266.1Q197.8 265.4 203.5 264.7Q209.1 264.1 214.8 263.7Q220.5 263.3 226.1 262.8Q231.8 262.2 237.4 261.3Q243 260.3 250.2 259.7Q257.5 259.1 253.8 267.1Q250.1 275 245.5 279.6Q240.9 284.2 236.5 288.8Q232.2 293.4 227.8 298.1Q223.5 302.7 218.2 307.8Q212.9 312.8 203.5 309.3Q194 305.7 188.5 302.3Q183 298.9 177.6 295.5Q172.2 292.2 166.9 288.8Q161.5 285.4 156 280.6Z"></path><path fill="#efe8d6" d="M160.8 277.7Q155.9 276.5 160.4 275.7Q165 274.9 170.4 274.1Q175.9 273.4 181.6 272.7Q187.2 272.1 192.9 271.5Q198.5 270.9 204.2 270.3Q209.8 269.7 215.5 269.3Q221.2 268.9 226.8 268.3Q232.5 267.7 238 266.6Q243.6 265.6 247.6 264.2Q251.5 262.9 247.3 266.2Q243.2 269.6 238.7 273.8Q234.3 278 229.8 282.5Q225.3 287 220.9 291.4Q216.4 295.9 213.5 299.5Q210.6 303 204.3 300.3Q198 297.6 192.8 294.6Q187.6 291.7 182.1 288.5Q176.6 285.3 171.1 282.1Q165.7 278.9 160.8 277.7Z"></path><path d="M201.5 286.1Q204.3 285.3 207.2 285.2Q210.1 285.1 213 285.7Q215.9 286.2 218.6 287.5Q221.3 288.7 223.6 290.6Q225.9 292.4 227.7 294.8Q229.5 297.2 230.6 299.9Q231.8 302.7 232.2 305.6Q232.7 308.5 232.5 311.5Q232.4 314.4 231.6 317.3Q230.7 320.1 229.3 322.7Q227.9 325.3 225.9 327.5Q224 329.8 221.5 331.5Q219.1 333.2 216.3 334.3Q213.5 335.4 210.5 335.8Q207.5 336.2 204.5 335.8Q201.5 335.5 198.7 334.4Q195.9 333.3 193.4 331.6Q191 329.9 189.1 327.6Q187.2 325.3 185.9 322.7Q184.6 320.1 183.8 317.4Q183.1 314.6 183 311.7Q182.8 308.9 183.3 306.1Q183.7 303.2 184.8 300.6Q185.9 298 187.6 295.6Q189.2 293.3 191.4 291.4Q193.6 289.5 196.1 288.2Q198.7 286.8 201.5 286.1Z"></path><path d="M192.8 316.6Q191.1 314.9 190.3 313.1Q189.6 311.2 190.7 309.8Q191.9 308.4 193.1 307.4Q194.2 306.3 195.7 304.8Q197.2 303.2 198.8 301.9Q200.5 300.6 202.2 299.8Q203.8 298.9 205.5 298.4Q207.2 297.9 209 297.8Q210.9 297.7 212.8 298Q214.7 298.3 216.7 299.1Q218.7 299.9 221 301.2Q223.2 302.5 224.5 303.7Q225.8 304.9 226.8 306.3Q227.8 307.7 227.6 309.5Q227.4 311.2 226.9 313.3Q226.5 315.4 224.8 317.7Q223.1 320 221.2 321.5Q219.3 322.9 217.2 323.8Q215.1 324.7 212.8 324.9Q210.6 325.2 208.4 324.9Q206.3 324.6 204.2 323.9Q202.2 323.1 200.3 322.1Q198.4 321.1 196.4 319.7Q194.5 318.4 192.8 316.6Z"></path><path fill="#efe8d6" d="M197.8 311.9Q196.5 311.2 196.5 311.2Q196.5 311.2 197.1 310.4Q197.8 309.6 199.3 308Q200.8 306.5 202.1 305.5Q203.4 304.6 204.6 304.1Q205.8 303.5 206.8 303.3Q207.9 303.1 208.9 303.2Q210 303.2 211.2 303.6Q212.4 303.9 213.8 304.6Q215.2 305.2 216.8 306.2Q218.4 307.1 218.9 307.9Q219.5 308.8 219.5 308.8Q219.5 308.8 219.4 309.9Q219.3 310.9 218.3 312.4Q217.3 313.8 216.1 314.8Q214.8 315.8 213.5 316.3Q212.1 316.8 210.9 316.9Q209.6 316.9 208.4 316.7Q207.2 316.6 205.9 316.1Q204.7 315.7 203.3 315.1Q202 314.5 200.5 313.5Q199.1 312.6 197.8 311.9Z"></path><path d="M205.7 300.3Q208.3 299.5 211 299.8Q213.7 300 216 301.4Q218.3 302.8 219.7 305.1Q221.1 307.4 221.3 310Q221.4 312.7 220.5 315.1Q219.6 317.5 217.9 319.5Q216.3 321.6 213.8 323Q211.4 324.5 208.3 324.7Q205.2 324.9 202.5 323.3Q199.7 321.7 198.1 319Q196.5 316.3 196.3 313.2Q196.1 310.1 197.4 307.3Q198.6 304.6 200.9 302.9Q203.1 301.1 205.7 300.3Z"></path><path fill="#efe8d6" d="M206.8 303.4Q208.7 303 210.6 303.3Q212.4 303.6 213.8 304.8Q215.2 306 215.7 307.5Q216.3 309.1 215.9 310.6Q215.6 312.1 215 313.2Q214.3 314.3 213.6 315.3Q212.9 316.3 211.8 317.5Q210.7 318.6 208.8 319.2Q207 319.8 205 319.1Q203 318.3 201.7 316.6Q200.4 314.8 200.1 312.7Q199.8 310.5 200.6 308.4Q201.5 306.4 203.2 305.1Q204.9 303.9 206.8 303.4Z"></path><path d="M206.3 305.1Q207.6 304.4 209 304.7Q210.4 305 211.4 305.9Q212.3 306.9 212.9 308Q213.4 309.1 213.6 310.3Q213.8 311.4 213.6 312.7Q213.4 313.9 212.4 314.7Q211.4 315.5 210.2 315.5Q209 315.5 208.1 315Q207.2 314.5 206.6 313.9Q206 313.3 205.6 312.7Q205.2 312.1 204.8 311.3Q204.4 310.5 204.2 309.4Q204.1 308.2 204.6 307Q205.1 305.8 206.3 305.1Z"></path><path fill="#efe8d6" d="M206.4 307.1Q206.5 307.1 207.1 307.3Q207.8 307.4 207.3 307.7Q206.9 307.9 206.3 308.3Q205.8 308.7 205.9 308Q206 307.2 206.2 307.2Q206.4 307.1 206.4 307.1Z"></path><path d="M190.8 313.3Q191 312.5 191.2 311.1Q191.5 309.6 192.1 308.2Q192.7 306.8 193.4 305.6Q194.1 304.5 194.9 303.4Q195.8 302.3 196.8 301.5Q197.7 300.8 198.8 300Q199.9 299.3 202.1 298.4Q204.3 297.6 206.6 297.4Q208.9 297.3 211.2 297.9Q213.4 298.5 214.5 299Q215.6 299.5 216.7 300Q217.8 300.4 219 301.2Q220.1 301.9 221.1 302.7Q222.2 303.4 223.2 304.6Q224.2 305.7 224.9 307Q225.5 308.3 225.8 309Q226.2 309.8 225.9 310.6Q225.5 311.4 224.7 311.7Q224 312.1 223.2 311.7Q222.4 311.4 221 310.8Q219.7 310.2 218.6 309.6Q217.5 308.9 216.5 308.5Q215.5 308 214.6 307.7Q213.7 307.3 212.9 307.1Q212.1 307 211.5 306.8Q210.8 306.5 209.7 306.2Q208.7 305.8 207.6 305.7Q206.6 305.7 205.4 305.9Q204.2 306.2 203.5 306.6Q202.8 306.9 202 307.4Q201.3 307.8 200.6 308.5Q199.8 309.3 199.1 310.1Q198.4 310.9 197.7 311.9Q196.9 312.9 195.9 313.9Q194.8 314.8 194.1 315.3Q193.4 315.8 192.5 315.7Q191.7 315.6 191.2 314.9Q190.7 314.2 190.8 313.3Z"></path></g></g></g></svg>