<svg xmlns="http://www.w3.org/2000/svg" viewBox="0 0 400 400" width="400" height="400" xmlns:c2pa="http://c2pa.org/manifest"><metadata><c2pa:manifest>AAAWgmp1bWIAAAAeanVtZGMycGEAEQAQgAAAqgA4m3EDYzJwYQAAABZcanVtYgAAAEdqdW1kYzJtYQARABCAAACqADibcQN1cm46YzJwYTo4OGU4YjFjYS1mMDU3LTRjNDAtOWRhOS1lZDBmM2EzMGM4ZDMAAAADl2p1bWIAAAApanVtZGMyYXMAEQAQgAAAqgA4m3EDYzJwYS5hc3NlcnRpb25zAAAAALxqdW1iAAAARGp1bWRjYm9yABEAEIAAAKoAOJtxE2MycGEuaW5ncmVkaWVudC52MwAAAAAYYzJzaH41ztjd22accWfhZZRz/8YAAABwY2JvcqNpZGM6Zm9ybWF0bWltYWdlL3N2Zyt4bWxqaW5zdGFuY2VJRHgseG1wOmlpZDo1NDcyMzAyZC0yMDY0LTRjNGQtYmVjNC0yMjIyZDk5ODQ0Y2RscmVsYXRpb25zaGlwaHBhcmVudE9mAAAB4mp1bWIAAABBanVtZGNib3IAEQAQgAAAqgA4m3ETYzJwYS5hY3Rpb25zLnYyAAAAABhjMnNoGQes7IwhHCbfKks9qtGO8AAAAZljYm9yomdhY3Rpb25zgqJmYWN0aW9ua2MycGEub3BlbmVkanBhcmFtZXRlcnOha2luZ3JlZGllbnRzgaJjdXJseC1zZWxmI2p1bWJmPWMycGEuYXNzZXJ0aW9ucy9jMnBhLmluZ3JlZGllbnQudjNkaGFzaFggRCKp1PGnGgfw3wmmHnf/+oiAQpqNhNtVqH7HNEk1gI2kZmFjdGlvbngdY29tLmFudGhyb3BpYy5jbGF1ZGUucHJvdmlkZWRqcGFyYW1ldGVyc6F4H2NvbS5hbnRocm9waWMub3JpZ2luLWNvbmZpZGVuY2VndW5rbm93bmtkZXNjcmlwdGlvbnhmQ2xhdWRlIHByb3ZpZGVkIHRoaXMgZmlsZSBhdCB0aGUgcmVxdWVzdCBvZiBhIHVzZXIgYW5kIG1heSBoYXZlIGNyZWF0ZWQgb3IgbW9kaWZpZWQgdGhlIGZpbGUgY29udGVudHMubXNvZnR3YXJlQWdlbnShZG5hbWVmQ2xhdWRlcmFsbEFjdGlvbnNJbmNsdWRlZPUAAADIanVtYgAAAEBqdW1kY2JvcgARABCAAACqADibcRNjMnBhLmhhc2guZGF0YQAAAAAYYzJzaNyenI+1WuqgoyGoViS1VL4AAACAY2JvcqVjYWxnZnNoYTI1NmNwYWRNAAAAAAAAAAAAAAAAAGRoYXNoWCDni76cJNfMCNnlKxj/dd2CgN+CLny8RudDgyLQwxttt2RuYW1lbmp1bWJmIG1hbmlmZXN0amV4Y2x1c2lvbnOBomVzdGFydBiWZmxlbmd0aBkeBAAAAj5qdW1iAAAAJ2p1bWRjMmNsABEAEIAAAKoAOJtxA2MycGEuY2xhaW0udjIAAAACD2Nib3KlY2FsZ2ZzaGEyNTZpc2lnbmF0dXJleE1zZWxmI2p1bWJmPS9jMnBhL3VybjpjMnBhOjg4ZThiMWNhLWYwNTctNGM0MC05ZGE5LWVkMGYzYTMwYzhkMy9jMnBhLnNpZ25hdHVyZWppbnN0YW5jZUlEeCx4bXA6aWlkOmZlNGEyOTliLTBmMmEtNGFiNi05NmUwLWJiODEwMmY4NGI4YXJjcmVhdGVkX2Fzc2VydGlvbnODomN1cmx4LXNlbGYjanVtYmY9YzJwYS5hc3NlcnRpb25zL2MycGEuaW5ncmVkaWVudC52M2RoYXNoWCBEIqnU8acaB/DfCaYed//6iIBCmo2E21Wofsc0STWAjaJjdXJseCpzZWxmI2p1bWJmPWMycGEuYXNzZXJ0aW9ucy9jMnBhLmFjdGlvbnMudjJkaGFzaFggICkHihb3SwRtE+nACFJtrU5HkCS9IWgmNIYB/j9cAu2iY3VybHgpc2VsZiNqdW1iZj1jMnBhLmFzc2VydGlvbnMvYzJwYS5oYXNoLmRhdGFkaGFzaFggU5oXPbzP8CjNBLfbYzIpgyLXJb4GrtU26b0tmSbZCOp0Y2xhaW1fZ2VuZXJhdG9yX2luZm+jZG5hbWVvQW50aHJvcGljIEZpbGVzZ3ZlcnNpb25lMS4wLjBrc3BlY1ZlcnNpb25lMi40LjAAABA4anVtYgAAAChqdW1kYzJjcwARABCAAACqADibcQNjMnBhLnNpZ25hdHVyZQAAABAIY2JvctKEWQISogEmGCFZAgowggIGMIIBjaADAgECAhRA5aAK7sI50L64g/oGQgU9Z1UTADAKBggqhkjOPQQDAzBJMRcwFQYDVQQKEw5BbnRocm9waWMsIFBCQzEuMCwGA1UEAxMlQW50aHJvcGljIENvbnRlbnQgQ3JlZGVudGlhbHMgUm9vdCBDQTAeFw0yNjA4MDcxODQzNTZaFw0yODA4MDYxOTQzNTZaMEQxFzAVBgNVBAoTDkFudGhyb3BpYywgUEJDMSkwJwYDVQQDEyBBbnRocm9waWMgQ2xhdWRlIENvbnRlbnQgU2lnbmluZzBZMBMGByqGSM49AgEGCCqGSM49AwEHA0IABJh6CmvLUBgFFNU0vUKlOVtE6djd17L5SuwX0LemFisBM3dkd/3cyjxFA3Qo5S46fX0/ihY0VZ7mfb9KF703t5OjWDBWMA4GA1UdDwEB/wQEAwIHgDAVBgNVHSUEDjAMBgorBgEEAYPoXgIBMAwGA1UdEwEB/wQCMAAwHwYDVR0jBBgwFoAUzlHiBIFOZFsj+OPEz5o+nMHXXMIwCgYIKoZIzj0EAwMDZwAwZAIwMXMdFJ4BetLLVY7ORuE9noqbbAZOZn/aArXyTwFAZfKrPzxF2vPoJNf1+UCdg1XGAjBwX1zd9WGqYkqmL5SFqw1QySjr1zJfpJM9+1rdDwSPLMOPOjKuiXjoU/pUUeG9RwmhY3BhZFkNngAAAAAAAAAAAAAAAAAAAAAAAAAAAAAAAAAAAAAAAAAAAAAAAAAAAAAAAAAAAAAAAAAAAAAAAAAAAAAAAAAAAAAAAAAAAAAAAAAAAAAAAAAAAAAAAAAAAAAAAAAAAAAAAAAAAAAAAAAAAAAAAAAAAAAAAAAAAAAAAAAAAAAAAAAAAAAAAAAAAAAAAAAAAAAAAAAAAAAAAAAAAAAAAAAAAAAAAAAAAAAAAAAAAAAAAAAAAAAAAAAAAAAAAAAAAAAAAAAAAAAAAAAAAAAAAAAAAAAAAAAAAAAAAAAAAAAAAAAAAAAAAAAAAAAAAAAAAAAAAAAAAAAAAAAAAAAAAAAAAAAAAAAAAAAAAAAAAAAAAAAAAAAAAAAAAAAAAAAAAAAAAAAAAAAAAAAAAAAAAAAAAAAAAAAAAAAAAAAAAAAAAAAAAAAAAAAAAAAAAAAAAAAAAAAAAAAAAAAAAAAAAAAAAAAAAAAAAAAAAAAAAAAAAAAAAAAAAAAAAAAAAAAAAAAAAAAAAAAAAAAAAAAAAAAAAAAAAAAAAAAAAAAAAAAAAAAAAAAAAAAAAAAAAAAAAAAAAAAAAAAAAAAAAAAAAAAAAAAAAAAAAAAAAAAAAAAAAAAAAAAAAAAAAAAAAAAAAAAAAAAAAAAAAAAAAAAAAAAAAAAAAAAAAAAAAAAAAAAAAAAAAAAAAAAAAAAAAAAAAAAAAAAAAAAAAAAAAAAAAAAAAAAAAAAAAAAAAAAAAAAAAAAAAAAAAAAAAAAAAAAAAAAAAAAAAAAAAAAAAAAAAAAAAAAAAAAAAAAAAAAAAAAAAAAAAAAAAAAAAAAAAAAAAAAAAAAAAAAAAAAAAAAAAAAAAAAAAAAAAAAAAAAAAAAAAAAAAAAAAAAAAAAAAAAAAAAAAAAAAAAAAAAAAAAAAAAAAAAAAAAAAAAAAAAAAAAAAAAAAAAAAAAAAAAAAAAAAAAAAAAAAAAAAAAAAAAAAAAAAAAAAAAAAAAAAAAAAAAAAAAAAAAAAAAAAAAAAAAAAAAAAAAAAAAAAAAAAAAAAAAAAAAAAAAAAAAAAAAAAAAAAAAAAAAAAAAAAAAAAAAAAAAAAAAAAAAAAAAAAAAAAAAAAAAAAAAAAAAAAAAAAAAAAAAAAAAAAAAAAAAAAAAAAAAAAAAAAAAAAAAAAAAAAAAAAAAAAAAAAAAAAAAAAAAAAAAAAAAAAAAAAAAAAAAAAAAAAAAAAAAAAAAAAAAAAAAAAAAAAAAAAAAAAAAAAAAAAAAAAAAAAAAAAAAAAAAAAAAAAAAAAAAAAAAAAAAAAAAAAAAAAAAAAAAAAAAAAAAAAAAAAAAAAAAAAAAAAAAAAAAAAAAAAAAAAAAAAAAAAAAAAAAAAAAAAAAAAAAAAAAAAAAAAAAAAAAAAAAAAAAAAAAAAAAAAAAAAAAAAAAAAAAAAAAAAAAAAAAAAAAAAAAAAAAAAAAAAAAAAAAAAAAAAAAAAAAAAAAAAAAAAAAAAAAAAAAAAAAAAAAAAAAAAAAAAAAAAAAAAAAAAAAAAAAAAAAAAAAAAAAAAAAAAAAAAAAAAAAAAAAAAAAAAAAAAAAAAAAAAAAAAAAAAAAAAAAAAAAAAAAAAAAAAAAAAAAAAAAAAAAAAAAAAAAAAAAAAAAAAAAAAAAAAAAAAAAAAAAAAAAAAAAAAAAAAAAAAAAAAAAAAAAAAAAAAAAAAAAAAAAAAAAAAAAAAAAAAAAAAAAAAAAAAAAAAAAAAAAAAAAAAAAAAAAAAAAAAAAAAAAAAAAAAAAAAAAAAAAAAAAAAAAAAAAAAAAAAAAAAAAAAAAAAAAAAAAAAAAAAAAAAAAAAAAAAAAAAAAAAAAAAAAAAAAAAAAAAAAAAAAAAAAAAAAAAAAAAAAAAAAAAAAAAAAAAAAAAAAAAAAAAAAAAAAAAAAAAAAAAAAAAAAAAAAAAAAAAAAAAAAAAAAAAAAAAAAAAAAAAAAAAAAAAAAAAAAAAAAAAAAAAAAAAAAAAAAAAAAAAAAAAAAAAAAAAAAAAAAAAAAAAAAAAAAAAAAAAAAAAAAAAAAAAAAAAAAAAAAAAAAAAAAAAAAAAAAAAAAAAAAAAAAAAAAAAAAAAAAAAAAAAAAAAAAAAAAAAAAAAAAAAAAAAAAAAAAAAAAAAAAAAAAAAAAAAAAAAAAAAAAAAAAAAAAAAAAAAAAAAAAAAAAAAAAAAAAAAAAAAAAAAAAAAAAAAAAAAAAAAAAAAAAAAAAAAAAAAAAAAAAAAAAAAAAAAAAAAAAAAAAAAAAAAAAAAAAAAAAAAAAAAAAAAAAAAAAAAAAAAAAAAAAAAAAAAAAAAAAAAAAAAAAAAAAAAAAAAAAAAAAAAAAAAAAAAAAAAAAAAAAAAAAAAAAAAAAAAAAAAAAAAAAAAAAAAAAAAAAAAAAAAAAAAAAAAAAAAAAAAAAAAAAAAAAAAAAAAAAAAAAAAAAAAAAAAAAAAAAAAAAAAAAAAAAAAAAAAAAAAAAAAAAAAAAAAAAAAAAAAAAAAAAAAAAAAAAAAAAAAAAAAAAAAAAAAAAAAAAAAAAAAAAAAAAAAAAAAAAAAAAAAAAAAAAAAAAAAAAAAAAAAAAAAAAAAAAAAAAAAAAAAAAAAAAAAAAAAAAAAAAAAAAAAAAAAAAAAAAAAAAAAAAAAAAAAAAAAAAAAAAAAAAAAAAAAAAAAAAAAAAAAAAAAAAAAAAAAAAAAAAAAAAAAAAAAAAAAAAAAAAAAAAAAAAAAAAAAAAAAAAAAAAAAAAAAAAAAAAAAAAAAAAAAAAAAAAAAAAAAAAAAAAAAAAAAAAAAAAAAAAAAAAAAAAAAAAAAAAAAAAAAAAAAAAAAAAAAAAAAAAAAAAAAAAAAAAAAAAAAAAAAAAAAAAAAAAAAAAAAAAAAAAAAAAAAAAAAAAAAAAAAAAAAAAAAAAAAAAAAAAAAAAAAAAAAAAAAAAAAAAAAAAAAAAAAAAAAAAAAAAAAAAAAAAAAAAAAAAAAAAAAAAAAAAAAAAAAAAAAAAAAAAAAAAAAAAAAAAAAAAAAAAAAAAAAAAAAAAAAAAAAAAAAAAAAAAAAAAAAAAAAAAAAAAAAAAAAAAAAAAAAAAAAAAAAAAAAAAAAAAAAAAAAAAAAAAAAAAAAAAAAAAAAAAAAAAAAAAAAAAAAAAAAAAAAAAAAAAAAAAAAAAAAAAAAAAAAAAAAAAAAAAAAAAAAAAAAAAAAAAAAAAAAAAAAAAAAAAAAAAAAAAAAAAAAAAAAAAAAAAAAAAAAAAAAAAAAAAAAAAAAAAAAAAAAAAAAAAAAAAAAAAAAAAAAAAAAAAAAAAAAAAAAAAAAAAAAAAAAAAAAAAAAAAAAAAAAAAAAAAAAAAAAAAAAAAAAAAAAAAAAAAAAAAAAAAAAAAAAAAAAAAAAAAAAAAAAAAAAAAAAAAAAAAAAAAAAAAAAAAAAAAAAAAAAAAAAAAAAAAAAAAAAAAAAAAAAAAAAAAAAAAAAAAAAAAAAAAAAAAAAAAAAAAAAAAAAAAAAAAAAAAAAAAAAAAAAAAAAAAAAAAAAAAAAAAAAAAAAAAAAAAAAAAAAAAAAAAAAAAAAAAAAAAAAAAAAAAAAAAAAAAAAAAAAAAAAAAAAAAAAAAAAAAAAAAAAAAAAAAAAAAAAAAAAAAAAAAAAAAAAAAAAAAAAAAAAAAAAAAAAAAAAAAAAAAAAAAAAAAAAAAAAAAAAAAAAAAAAAAAAAAAAAAAAAAAAAAAAAAAAAAAAAAAAAAAAAAAAAAAAAAAAAAAAAAAAAAAAAAAAAAAAAAAAAAAAAAAAAAAAAAAAAAAAAAAAAAAAAAAAAAAAAAAAAAAAAAAAAAAAAAAAAAAAAAAAAAAAAAAAAAAAAAAAAAAAAAAAAAAAAAAAAAAAAAAAAAAAAAAAAAAAAAAAAAAAAAAAAAAAAAAAAAAAAAAAAAAAAAAAAAAAAAAAAAAAAAAAAAAAAAAAAAAAAAAAAAAAAAAAAAAAAAAAAAAAAAAAAAAAAAAAAAAAAAAAAAAAAAAAAAAAAAAAAAAAAAAAAAAAAAAAAAAAAAAAAAAAAAAAAAAAAAAAAAAAAAAAAAAAAAAAAAAAAAAAAAAAAAAAAAAAAAAAAAAAAAAAAAAAAAAAAAAAAAAAAAAAAAAAAAAAAAAAAAAAAAAAAAAAAAAAAAAAAAAAAAAAAAAAAAAAAAAAAAAAAAAAAAAAAAAAAAAAAAAAAAAAAAAAAAAAAAAAAAAAAAAAAAAAAAAAAAAAAAAAAAAAAAAAAAAAAAAAAAAAAAAAAAAAAAAAAAAAAAAAAAAAAAAAAAAAAAAAAAAAAAAAAAAAAAAAAAAAAAAAAAAAAAAAAAAAAAAAAAAAAAAAAAAAAAAAAAAAAAAAAAAAAAAAAAAAAAAAAAAAAAAAAAAAAAAAAAAAAAAAAAAAAAAAAAAAAAAAAAAAAAAAAAAAAAAAAAAAAAAAAAAAAAAAAAAAAAAAAAAAAAAAAAAAAAAAAAAAAAAAAAAAAAAAAAAAAAAAAAAAAAAAAAAAAAAAAAAAAAAAAAAAAAAAAAAAAAAAAAAAAAAAAAAAAAAAAAAAAAAAAAAAAAAAAAAAAAAAAAAAAAAAAAAAAAAAAAAAAAAAAAAAAAAAAAAAAAAAAAAAAAAAAAAAAAAAAAAAAAAAAAAAAAAAAAAAPZYQJyNxPmgpRsIeAmPLLlqY9ohcbMA0a8F09TgJ7pK5+0E41GTcwAtRWmuSIuGFquoZtcPrWbiLp0DhdP558vbLXk=</c2pa:manifest></metadata><title>U05 PLANNER (Frame A)</title><g fill="#221d17"><g id="base"><g id="legs"><path d="M175.3 283.4Q180.9 284.5 181 289.6Q181.1 294.7 180.7 297.1Q180.3 299.5 179.8 302Q179.4 304.4 179 306.8Q178.6 309.1 178.1 312.7Q177.5 316.2 177.1 319.2Q176.7 322.1 176.3 324.7Q176 327.3 173.9 332.6Q171.8 337.8 167.1 340.5Q162.4 343.1 157.2 342.4Q152 341.6 148.4 337.9Q144.8 334.2 144 329.6Q143.2 325 143.4 321.6Q143.6 318.1 143.8 314.9Q144 311.7 144.4 307.9Q144.8 304.1 145.1 301.7Q145.5 299.2 145.9 296.7Q146.4 294.2 146.8 291.8Q147.3 289.4 148.8 284.8Q150.3 280.2 155.8 280.5Q161.3 280.8 165.5 281.5Q169.7 282.3 175.3 283.4Z"></path><path fill="#efe8d6" d="M171.8 288.5Q174.8 288.8 173.5 290.9Q172.1 293 171.6 295.4Q171.2 297.8 170.7 300.3Q170.2 302.8 169.7 305.2Q169.3 307.5 168.7 311.1Q168 314.7 167.6 317.7Q167.1 320.7 166.7 322.7Q166.4 324.8 165.1 327.8Q163.8 330.8 162.1 331.8Q160.4 332.8 158.2 332.7Q156.1 332.7 154.2 331.3Q152.3 330 151.6 327.3Q150.9 324.7 151.1 321.8Q151.2 318.9 151.4 315.7Q151.7 312.6 152.1 308.8Q152.5 305 152.8 302.6Q153.1 300.2 153.5 297.7Q153.9 295.2 154.2 292.7Q154.6 290.3 154.3 287.7Q154 285.1 157.2 286.1Q160.3 287.1 164.6 287.7Q168.8 288.2 171.8 288.5Z"></path><path d="M132.6 331.8Q133 330.6 134.9 326.3Q136.9 322.1 141.3 320Q145.8 317.9 149.6 317.7Q153.5 317.4 157 317.3Q160.6 317.2 164.1 317.2Q167.7 317.2 171.2 317.3Q174.8 317.4 178.7 317.5Q182.5 317.5 187.5 319.3Q192.4 321.1 195.1 326.4Q197.8 331.6 195.7 337.4Q193.5 343.3 188.3 345.6Q183 347.8 178.9 347.7Q174.8 347.6 171.2 347.5Q167.7 347.3 164.1 347.2Q160.6 347.1 157 347Q153.5 347 149.5 347Q145.5 346.9 140.7 344.6Q135.8 342.2 134 337.6Q132.1 333 132.6 331.8Z"></path><path fill="#efe8d6" d="M140.3 331.4Q139.9 333.4 140.8 330.2Q141.8 327 144.5 325.9Q147.2 324.7 150.3 324.7Q153.5 324.6 157 324.4Q160.6 324.2 164.1 324.2Q167.7 324.1 171.2 324.2Q174.8 324.3 178 324.4Q181.1 324.5 183.8 325.8Q186.4 327.1 187 329.4Q187.6 331.6 186.7 333.5Q185.7 335.5 183.3 336.4Q180.9 337.3 177.8 337.3Q174.8 337.2 171.2 337Q167.7 336.7 164.1 336.4Q160.6 336.1 157 335.9Q153.5 335.6 150.6 335.7Q147.7 335.7 145.4 335.3Q143.1 334.9 142 332.2Q140.8 329.4 140.3 331.4Z"></path><path d="M224.3 279.4Q230.3 278.5 232.6 283.6Q234.9 288.6 235.4 291Q235.9 293.4 236.5 295.9Q237 298.5 237.6 300.8Q238.1 303.2 239 306.8Q239.9 310.4 240.8 313.3Q241.6 316.3 242.4 319Q243.3 321.7 243.4 328Q243.5 334.2 239.5 339Q235.6 343.9 229.7 345.1Q223.7 346.2 218.6 343.6Q213.4 340.9 211 336.5Q208.6 332.1 207.6 328.6Q206.7 325.1 205.8 322Q205 318.9 204 315.1Q203 311.4 202.3 309Q201.7 306.6 201 304.1Q200.3 301.6 199.7 299.2Q199 296.8 198.8 291.4Q198.5 285.9 204.2 283.9Q209.9 281.9 214.1 281.1Q218.3 280.3 224.3 279.4Z"></path><path fill="#efe8d6" d="M223 285.4Q226.4 284.6 226.1 287.5Q225.8 290.5 226.2 292.9Q226.6 295.3 227 297.9Q227.4 300.4 227.8 302.9Q228.2 305.3 228.9 309Q229.5 312.6 230.2 315.7Q230.9 318.7 231.3 320.8Q231.8 323 231.6 326.4Q231.5 329.8 230 331.2Q228.5 332.6 226.5 333.2Q224.5 333.8 222.4 333.3Q220.2 332.8 218.5 330.7Q216.8 328.5 215.8 325.7Q214.8 322.9 213.8 319.8Q212.9 316.8 211.8 313Q210.8 309.3 210.2 307Q209.5 304.6 208.8 302.1Q208.1 299.6 207.4 297.2Q206.7 294.8 205.3 292Q203.8 289.2 207.6 288.5Q211.3 287.9 215.4 287Q219.6 286.1 223 285.4Z"></path><path d="M198.7 331.6Q199.2 330.1 201.3 325.8Q203.4 321.5 208 319.5Q212.7 317.5 216.9 317.5Q221.1 317.4 225.1 317.3Q229 317.3 233 317.3Q236.9 317.4 240.8 317.4Q244.8 317.4 249.1 317.3Q253.4 317.1 258.5 318.8Q263.6 320.5 266.5 325.9Q269.4 331.4 267.2 337.6Q265.1 343.8 259.5 346.4Q254 349 249.4 349Q244.8 349.1 240.8 348.9Q236.9 348.8 233 348.5Q229 348.2 225.1 348Q221.1 347.7 216.7 347.6Q212.2 347.5 207.2 345Q202.1 342.5 200.2 337.8Q198.3 333.1 198.7 331.6Z"></path><path fill="#efe8d6" d="M206.5 331.2Q206.1 332.9 207.2 329.7Q208.3 326.5 211.2 325.5Q214 324.5 217.6 324.6Q221.1 324.7 225.1 324.6Q229 324.6 233 324.6Q236.9 324.6 240.8 324.6Q244.8 324.6 248.3 324.5Q251.9 324.5 254.7 325.5Q257.5 326.6 258.3 329Q259.1 331.4 258.2 333.7Q257.4 336.1 254.7 337.4Q252 338.8 248.4 338.9Q244.8 339.1 240.8 338.8Q236.9 338.6 233 338.1Q229 337.5 225.1 337Q221.1 336.5 217.8 336.4Q214.4 336.2 212 335.7Q209.5 335.1 208.2 332.3Q207 329.5 206.5 331.2Z"></path></g><g id="torso"><path d="M129.4 238.2Q129.6 231.7 130.2 226.9Q130.8 222.2 132.5 217.6Q134.3 212.9 137.2 209Q140.2 205 144.2 202.2Q148.3 199.3 152.9 197.7Q157.5 196.1 162.2 195.6Q166.9 195 172.9 194.7Q179 194.4 184.9 194.3Q190.8 194.1 196.7 194.2Q202.6 194.3 208.7 194.4Q214.7 194.5 219.5 195Q224.2 195.6 228.8 197.3Q233.4 199.1 237.5 202Q241.6 204.8 244.9 208.6Q248.2 212.5 250.4 217.1Q252.6 221.7 253.5 226.6Q254.4 231.5 254.7 238.1Q255.1 244.8 255.3 251.4Q255.5 258.1 255 263.2Q254.5 268.3 252.6 273.4Q250.6 278.4 247.3 282.7Q243.9 287 239.5 290.1Q235 293.1 229.9 294.7Q224.9 296.3 219.9 296.7Q214.9 297.1 208.8 296.9Q202.6 296.7 196.7 296.6Q190.8 296.4 184.9 296.4Q179 296.3 172.9 296.3Q166.8 296.3 162 295.5Q157.2 294.7 152.6 292.7Q148.1 290.6 144.2 287.5Q140.3 284.4 137.3 280.4Q134.4 276.5 132.4 272Q130.4 267.4 129.7 262.6Q129 257.9 129.1 251.3Q129.2 244.8 129.4 238.2Z"></path><path fill="#efe8d6" d="M138.3 238.5Q138.5 232.2 138.7 228.3Q139 224.4 140.1 220.7Q141.3 217 143.6 213.8Q145.9 210.7 149.1 208.5Q152.4 206.4 156.1 205.4Q159.7 204.3 163.6 204.1Q167.5 203.9 173.2 203.7Q179 203.5 184.9 203.3Q190.8 203 196.7 203Q202.6 203.1 208.4 203.1Q214.2 203.1 218 203.7Q221.9 204.3 225.2 205.9Q228.6 207.5 231.4 209.9Q234.1 212.3 236.1 215.3Q238 218.3 239 221.7Q240 225.1 240.1 228.8Q240.3 232.4 240.2 238.6Q240.1 244.8 240.1 250.9Q240.2 257.1 239.7 260.6Q239.2 264.2 237.9 267.3Q236.7 270.4 234.6 273.1Q232.6 275.7 229.9 277.7Q227.2 279.6 224.1 280.7Q221 281.8 217.5 282.2Q213.9 282.7 208.3 282.6Q202.6 282.5 196.7 282.5Q190.8 282.4 184.9 282.5Q179 282.7 173.3 282.9Q167.7 283.1 164 282.9Q160.4 282.6 157.2 281.5Q154 280.4 151.1 278.5Q148.1 276.6 145.7 274Q143.3 271.4 141.5 268.1Q139.7 264.9 138.9 261.1Q138.1 257.3 138.2 251Q138.2 244.8 138.3 238.5Z"></path><path d="M141.1 268.3Q141.7 268.1 144.4 267.8Q147.1 267.6 149.9 267.6Q152.6 267.7 155.3 267.8Q158 267.9 160.8 268Q163.5 268.2 166.2 268.2Q169 268.1 171.7 268Q174.4 267.8 177.2 267.6Q179.9 267.4 182.6 267.3Q185.3 267.2 188.1 267.1Q190.8 267.1 193.5 267Q196.3 266.9 199 266.9Q201.7 266.8 204.4 266.8Q207.2 266.8 209.9 266.8Q212.6 266.7 215.4 266.7Q218.1 266.6 220.8 266.6Q223.6 266.6 226.3 266.7Q229 266.9 231.7 267.1Q234.5 267.4 237.2 267.7Q239.9 268.1 240.5 268.3Q241 268.5 241.2 269Q241.4 269.6 241.2 270.1Q241 270.6 240.5 270.8Q239.9 271.1 237.2 271.3Q234.5 271.6 231.7 271.6Q229 271.7 226.3 271.8Q223.6 271.9 220.8 272.1Q218.1 272.3 215.4 272.6Q212.6 272.8 209.9 272.9Q207.2 273.1 204.4 273.1Q201.7 273.2 199 273.2Q196.3 273.3 193.5 273.3Q190.8 273.3 188.1 273.2Q185.3 273.2 182.6 273.2Q179.9 273.2 177.2 273.3Q174.4 273.4 171.7 273.5Q169 273.6 166.2 273.5Q163.5 273.4 160.8 273.2Q158 272.9 155.3 272.6Q152.6 272.3 149.9 272Q147.1 271.8 144.4 271.4Q141.7 271.1 141.1 270.8Q140.6 270.6 140.4 270.1Q140.2 269.6 140.4 269Q140.6 268.5 141.1 268.3Z"></path></g><g id="kopf"><path d="M151.4 118.6Q152.1 120.7 151.9 124.9Q151.8 129.2 151.5 131.4Q151.2 133.6 150.8 137.2Q150.3 140.9 150.4 143.9Q150.6 147 150.9 150.2Q151.2 153.4 150.9 156.5Q150.6 159.6 149.1 162.2Q147.6 164.8 145.3 166.7Q143 168.5 139.1 169.2Q135.3 169.9 132.3 169Q129.2 168.2 126.4 166.6Q123.7 164.9 121.6 162.5Q119.5 160.1 117.9 156.9Q116.3 153.7 115.3 150.2Q114.2 146.7 113.9 143.5Q113.6 140.3 113.9 137.2Q114.2 134 115.1 131Q116 128 117.5 125.2Q119 122.4 121.2 119.8Q123.5 117.1 126.2 115Q129 113 131.9 112Q134.8 111.1 138.2 111.1Q141.5 111.1 144.7 112.4Q147.8 113.6 149.2 115.1Q150.7 116.6 151.4 118.6Z"></path><path fill="#efe8d6" d="M144.6 120.4Q144.7 121.3 144.4 124.9Q144.1 128.4 143.8 130.5Q143.5 132.6 143.1 136.7Q142.6 140.8 142.9 144.3Q143.1 147.8 143.3 150.8Q143.5 153.7 143.2 155.5Q142.8 157.4 141.9 158.4Q141 159.5 140 160.1Q139.1 160.8 137.3 161.2Q135.5 161.6 133.8 161.3Q132.1 161 130.1 160.2Q128.1 159.3 126.5 157.9Q124.9 156.4 123.5 153.9Q122 151.4 121 148.5Q119.9 145.6 119.5 143Q119 140.3 119.1 137.7Q119.2 135.1 119.8 132.5Q120.4 130 121.6 127.6Q122.8 125.2 124.7 122.9Q126.6 120.5 128.9 118.8Q131.1 117 133.3 116.4Q135.5 115.8 138 116Q140.4 116.2 142.3 117.2Q144.2 118.2 144.4 118.9Q144.6 119.5 144.6 120.4Z"></path><path d="M137.6 129.3Q137.3 129.5 136 130.3Q134.6 131.2 133.7 131.7Q132.8 132.3 132 132.8Q131.2 133.3 130.5 133.6Q129.8 134 129.3 134.2Q128.8 134.5 128.4 135Q128 135.6 127.5 136.4Q127.1 137.3 126.6 138.3Q126.2 139.4 125.9 140.5Q125.5 141.6 125.4 142.8Q125.2 143.9 125.3 144.9Q125.4 146 125.8 146.9Q126.3 147.8 127 148.6Q127.8 149.5 128.7 150.3Q129.5 151 130.3 151.8Q131.2 152.5 131.8 153.2Q132.5 153.9 132.8 154.6Q133.2 155.2 133.3 155.5Q133.4 155.8 133.2 156.1Q133.1 156.4 132.7 156.5Q132.4 156.6 132.1 156.5Q131.8 156.3 131.3 155.9Q130.7 155.5 129.9 154.9Q129.1 154.4 128.1 153.7Q127.1 153 126 152.3Q124.9 151.5 123.9 150.5Q122.8 149.5 122.2 148.3Q121.5 147 121.3 145.7Q121 144.3 121.1 142.9Q121.2 141.6 121.4 140.2Q121.7 138.8 122.1 137.5Q122.5 136.2 123 135Q123.6 133.8 124.4 132.8Q125.1 131.8 126.2 131.2Q127.2 130.5 128.4 130.2Q129.5 129.8 130.6 129.5Q131.7 129.2 132.8 128.8Q133.8 128.5 135.3 128.1Q136.8 127.8 137.1 127.8Q137.5 127.8 137.7 128.1Q137.9 128.4 137.9 128.7Q137.9 129.1 137.6 129.3Z"></path><path d="M133.3 126.4Q133.2 119.6 134.1 114.6Q135 109.7 137.4 105Q139.9 100.4 143.6 96.7Q147.3 93 152 90.7Q156.6 88.4 161.6 87.7Q166.5 87 172.9 87.2Q179.2 87.3 185.4 87.3Q191.5 87.2 197.7 87.2Q203.8 87.2 210.2 87.4Q216.5 87.5 221.3 88.3Q226.2 89.1 230.8 91.3Q235.4 93.5 239.1 97.1Q242.8 100.7 245.2 105.2Q247.6 109.8 248.4 114.7Q249.3 119.6 249.3 126.4Q249.2 133.2 249.1 139.7Q249 146.3 249 153Q249.1 159.8 248.4 164.7Q247.8 169.7 245.6 174.4Q243.4 179.2 239.8 183.1Q236.3 187.1 231.5 189.7Q226.8 192.4 221.8 193.2Q216.7 194.1 210.2 194Q203.8 194 197.7 193.9Q191.5 193.9 185.4 193.8Q179.2 193.8 172.8 193.8Q166.4 193.8 161.4 192.8Q156.4 191.9 151.7 189.3Q147.1 186.7 143.5 182.9Q139.9 179 137.7 174.3Q135.5 169.6 134.8 164.7Q134.2 159.8 134.1 153Q134 146.3 133.7 139.7Q133.4 133.2 133.3 126.4Z"></path><path fill="#efe8d6" d="M144.1 126.8Q143.8 120.4 144.2 116.6Q144.6 112.8 146.1 109.4Q147.5 106 150.2 103.2Q152.8 100.5 156.2 99Q159.6 97.5 163.5 97.2Q167.3 97 173.3 97.3Q179.2 97.6 185.4 97.5Q191.5 97.3 197.7 97.1Q203.8 96.9 209.8 96.9Q215.8 96.8 219.5 97.5Q223.2 98.2 226.3 100Q229.4 101.8 231.5 104.5Q233.7 107.3 234.8 110.4Q235.9 113.6 236.1 117.1Q236.3 120.6 236.1 126.9Q235.9 133.2 235.8 139.7Q235.7 146.3 235.7 152.5Q235.6 158.7 235 162Q234.3 165.3 232.8 167.9Q231.3 170.4 229.3 172.6Q227.2 174.7 224.6 176.1Q222 177.6 218.7 178.1Q215.5 178.6 209.6 178.5Q203.8 178.4 197.7 178.3Q191.5 178.2 185.4 178.1Q179.2 178 173.4 178Q167.6 178 164.4 177.7Q161.1 177.3 158.3 176.2Q155.5 175.1 153 173.2Q150.6 171.3 148.7 168.6Q146.9 165.9 146.1 162.4Q145.3 158.9 145.1 152.6Q144.9 146.3 144.6 139.7Q144.3 133.2 144.1 126.8Z"></path><path d="M155.9 132Q156.6 131.3 157.5 130.4Q158.4 129.5 159.5 129Q160.7 128.5 161.8 128Q162.9 127.6 164 127Q165.1 126.4 166.1 125.7Q167.1 125 168.1 124.2Q169.1 123.4 170.1 122.8Q171.2 122.1 172.3 121.6Q173.4 121.1 175.2 120.4Q177 119.7 178.9 120.3Q180.8 120.8 182 121.2Q183.2 121.6 184.4 122Q185.7 122.4 186.9 122.8Q188.1 123.1 189.4 123.5Q190.6 123.8 191.8 124.2Q193.1 124.6 194.3 125.1Q195.5 125.5 196.6 126.4Q197.7 127.2 198.4 127.8Q199.2 128.4 199.3 129.4Q199.4 130.4 198.8 131.1Q198.1 131.9 197.2 132Q196.2 132.1 194.8 132.2Q193.4 132.3 192.2 132.1Q190.9 131.9 189.6 131.6Q188.4 131.3 187.2 130.9Q185.9 130.6 184.7 130.2Q183.4 129.9 182.2 129.6Q180.9 129.3 179.7 129Q178.4 128.7 178.1 128.6Q177.7 128.4 177.5 128.7Q177.4 129.1 176.3 129.7Q175.2 130.2 174.2 130.9Q173.1 131.5 172.1 132.2Q171.1 132.9 170 133.5Q168.9 134.1 167.8 134.5Q166.6 135 165.4 135.2Q164.2 135.5 162.9 135.7Q161.6 135.8 160.2 135.8Q158.9 135.9 157.9 135.9Q156.9 136 156.2 135.4Q155.4 134.7 155.4 133.7Q155.3 132.7 155.9 132Z"></path><path d="M212.1 122.8Q213 122.6 214.4 122.4Q215.7 122.2 217 122.3Q218.4 122.4 219.7 122.5Q221 122.6 222.3 122.8Q223.5 122.9 224.8 123.2Q226.1 123.5 227.3 123.8Q228.6 124.2 230.5 124.6Q232.4 125.1 233.8 126.3Q235.2 127.6 235.9 128.6Q236.6 129.6 237.2 130.7Q237.9 131.7 238.6 132.7Q239.3 133.6 240.2 134.4Q241.1 135.3 241.9 136.1Q242.8 136.9 243.4 138Q243.9 139.1 244.3 140Q244.6 140.8 244.3 141.7Q243.9 142.5 243.1 142.9Q242.2 143.2 241.4 142.9Q240.5 142.5 239.3 142.1Q238 141.7 236.8 141.2Q235.7 140.6 234.6 140Q233.6 139.4 232.7 138.6Q231.8 137.8 231.1 136.8Q230.3 135.9 229.6 134.9Q228.9 133.9 228.6 133.2Q228.3 132.6 227.6 132.3Q226.8 132.1 225.6 131.5Q224.4 131 223.2 130.6Q221.9 130.2 220.7 130Q219.4 129.7 218.1 129.6Q216.8 129.4 215.5 129.1Q214.3 128.8 213.1 128Q212 127.3 211.2 126.8Q210.5 126.2 210.3 125.3Q210.1 124.4 210.7 123.7Q211.2 122.9 212.1 122.8Z"></path><path d="M157.8 158.8Q155.8 156.7 155.2 154.8Q154.5 153 155.6 151.5Q156.6 150.1 158.4 147.7Q160.1 145.3 162.1 143Q164.2 140.6 166.4 138.9Q168.7 137.1 171.1 136Q173.6 134.9 176.2 134.6Q178.8 134.3 181.3 134.7Q183.8 135.2 186.2 136.3Q188.6 137.4 190.8 139.2Q193 141 195.1 143.4Q197.2 145.8 198.5 148.1Q199.9 150.4 200.8 152Q201.8 153.6 201 155.4Q200.2 157.1 198.6 158.7Q197 160.2 194.7 162Q192.4 163.7 190.1 164.9Q187.8 166.1 185.5 166.9Q183.3 167.6 181 167.9Q178.8 168.2 176.5 168.1Q174.2 167.9 171.8 167.3Q169.4 166.7 167 165.6Q164.6 164.4 162.2 162.7Q159.8 161 157.8 158.8Z"></path><path fill="#efe8d6" d="M163.3 154.3Q161.6 152.9 161.6 152.9Q161.6 152.9 162.7 150.8Q163.9 148.7 165.6 146.5Q167.4 144.3 169.3 142.8Q171.1 141.2 173 140.4Q175 139.5 176.9 139.4Q178.8 139.2 180.6 139.7Q182.4 140.2 184.1 141.3Q185.8 142.3 187.4 143.9Q189.1 145.4 190.8 147.5Q192.4 149.6 193.2 151.4Q193.9 153.2 193.9 153.2Q193.9 153.2 192.8 154.1Q191.7 155.1 189.9 156.5Q188.1 158 186.3 158.9Q184.6 159.8 183.1 160.2Q181.5 160.7 180.1 160.8Q178.8 161 177.3 160.9Q175.9 160.9 174.3 160.5Q172.7 160.2 170.9 159.3Q169 158.5 167 157.1Q165 155.7 163.3 154.3Z"></path><path d="M182.3 134.9Q185.3 134 188.4 134.7Q191.5 135.4 193.9 137.5Q196.3 139.5 197.6 142.3Q198.9 145.2 199 148.3Q199 151.4 197.8 154.3Q196.5 157.2 194 159.3Q191.6 161.3 188.4 162.2Q185.3 163.1 182 162.5Q178.7 161.8 176.2 159.7Q173.7 157.5 172.6 154.5Q171.5 151.4 171.8 148.3Q172 145.2 173.4 142.5Q174.7 139.8 177 137.8Q179.2 135.7 182.3 134.9Z"></path><path fill="#efe8d6" d="M183 138.4Q185.3 137.9 187.4 138.6Q189.6 139.3 191.1 140.8Q192.6 142.4 193.4 144.3Q194.1 146.3 194 148.3Q194 150.3 193.1 152Q192.2 153.8 190.7 155.1Q189.2 156.5 187.3 157.2Q185.3 158 183 157.8Q180.8 157.7 178.8 156.3Q176.9 155 175.9 152.8Q175 150.6 175.2 148.3Q175.3 146 176.3 143.9Q177.3 141.9 179 140.4Q180.8 138.9 183 138.4Z"></path><path d="M185.1 143.5Q186.1 143.4 187.2 143.5Q188.2 143.7 189.2 144.2Q190.2 144.8 190.8 145.8Q191.4 146.8 191.5 148Q191.5 149.2 191 150.4Q190.5 151.5 189.5 152.2Q188.5 153 187.3 153.3Q186.1 153.6 184.9 153.3Q183.7 153 182.7 152.3Q181.8 151.5 181.2 150.4Q180.7 149.3 180.7 148Q180.7 146.8 181.3 145.7Q182 144.7 183 144.2Q184 143.6 185.1 143.5Z"></path><path fill="#efe8d6" d="M181.2 143Q181.4 142.9 181.8 143.2Q182.2 143.5 182.6 144Q183.1 144.5 182.6 145.1Q182.2 145.7 181.5 145.6Q180.8 145.6 180.4 145Q180.1 144.5 180.3 143.9Q180.5 143.3 180.7 143.2Q180.9 143 181.2 143Z"></path><path d="M159 153.2Q159.2 152.4 159.5 151.2Q159.9 149.9 160.3 148.7Q160.7 147.5 161.2 146.2Q161.6 144.8 162.4 143.3Q163.3 141.8 164.4 140.3Q165.4 138.8 166.7 137.9Q168 137 169.4 136.2Q170.8 135.4 172.3 135Q173.7 134.6 175.2 134.3Q176.7 134.1 178.1 134.3Q179.6 134.4 180.9 134.7Q182.3 134.9 183.6 135.6Q184.9 136.2 186.1 136.8Q187.3 137.4 188.6 138.2Q189.8 139.1 191 139.9Q192.2 140.7 193.3 142Q194.4 143.2 195.5 144.4Q196.5 145.7 197.2 146.8Q197.9 147.9 198.5 149Q199.1 150 199.5 151.2Q200 152.4 200.2 153.2Q200.4 154 199.9 154.7Q199.5 155.4 198.7 155.6Q197.9 155.8 197.2 155.4Q196.5 155 195.5 154.3Q194.4 153.5 193.5 152.7Q192.6 151.9 191.8 151.2Q191 150.5 189.9 149.7Q188.8 148.9 187.7 148.1Q186.7 147.4 185.8 146.9Q184.8 146.5 184.1 146Q183.3 145.6 182.7 145.2Q182 144.9 181.4 144.4Q180.9 143.9 180.2 143.6Q179.6 143.3 178.8 143Q178.1 142.6 177.2 142.6Q176.4 142.6 175.4 142.7Q174.4 142.7 173.4 143.2Q172.4 143.7 171.4 144.3Q170.4 144.9 169.4 145.9Q168.5 147 167.7 148.2Q166.9 149.4 166.4 150.4Q165.9 151.4 165.2 152.4Q164.5 153.4 163.6 154.2Q162.6 155 161.9 155.4Q161.2 155.8 160.4 155.6Q159.6 155.4 159.2 154.7Q158.8 154 159 153.2Z"></path><path d="M217.2 135.1Q220.6 134.4 224 134.8Q227.4 135.3 230.6 136.9Q233.8 138.5 236.2 141.3Q238.6 144.1 239.7 147.6Q240.9 151.2 240.6 154.9Q240.3 158.7 238.6 162.1Q237 165.5 234.2 168Q231.4 170.6 227.9 171.8Q224.3 173 220.6 172.8Q216.9 172.5 213.7 170.9Q210.5 169.4 208 166.8Q205.6 164.3 204.3 161.2Q202.9 158.1 202.6 154.7Q202.4 151.4 203.3 148.1Q204.2 144.9 206.2 142.2Q208.2 139.5 211 137.7Q213.9 135.8 217.2 135.1Z"></path><path fill="#efe8d6" d="M218.2 140.3Q220.6 139.9 222.9 140.5Q225.2 141 227.1 142.4Q229 143.8 230.1 145.8Q231.2 147.8 231.3 149.9Q231.5 152 230.9 153.9Q230.3 155.8 229.3 157.4Q228.3 158.9 226.9 160Q225.6 161.2 223.9 161.7Q222.3 162.2 220.6 162.2Q218.9 162.1 217.3 161.5Q215.6 161 214.2 160Q212.8 158.9 211.7 157.4Q210.5 155.9 209.9 154Q209.3 152 209.4 149.8Q209.6 147.6 210.8 145.6Q211.9 143.5 213.9 142.2Q215.8 140.8 218.2 140.3Z"></path><path d="M218.2 143.4Q220.4 142.9 222.6 143.3Q224.9 143.6 226.9 144.9Q228.9 146.2 230.2 148.4Q231.4 150.6 231.5 153.1Q231.7 155.7 230.6 158.1Q229.6 160.5 227.5 162Q225.4 163.6 222.9 163.8Q220.4 164 218.2 163.1Q216 162.2 214.4 160.6Q212.8 159.1 211.8 157.2Q210.8 155.3 210.6 153.1Q210.5 150.8 211.4 148.8Q212.4 146.7 214.2 145.4Q216 144 218.2 143.4Z"></path><path fill="#efe8d6" d="M218.8 146.3Q220.4 146.1 221.9 146.4Q223.4 146.8 224.6 147.8Q225.8 148.8 226.3 150.2Q226.9 151.6 226.8 153.1Q226.7 154.5 226.1 155.8Q225.4 157.1 224.3 157.9Q223.1 158.7 221.7 158.7Q220.4 158.8 219.2 158.3Q218.1 157.8 217.2 157.1Q216.2 156.4 215.3 155.4Q214.5 154.4 214.1 153Q213.7 151.6 214.2 150.1Q214.8 148.6 216 147.6Q217.2 146.6 218.8 146.3Z"></path><path d="M219.8 143.3Q219.9 143.5 220.1 144.8Q220.3 146 220.4 147.2Q220.5 148.5 220.7 149.7Q220.8 150.9 221.1 152.2Q221.3 153.4 221.4 154.6Q221.6 155.8 221.2 157.1Q220.8 158.3 220.6 159.5Q220.3 160.8 220.1 162Q219.9 163.2 219.8 163.5Q219.7 163.7 219.5 163.8Q219.2 163.9 219 163.8Q218.7 163.7 218.6 163.5Q218.5 163.2 218.4 162Q218.2 160.8 218.3 159.5Q218.4 158.3 218.7 157.1Q219 155.8 218.7 154.6Q218.4 153.4 218.1 152.2Q217.7 150.9 217.7 149.7Q217.6 148.5 217.8 147.2Q218 146 218.3 144.8Q218.5 143.5 218.6 143.3Q218.7 143.1 219 143Q219.2 142.9 219.5 143Q219.7 143.1 219.8 143.3ZM210.2 151.6Q210.5 151.5 211.7 151.3Q212.9 151 214.2 151Q215.4 151 216.6 151.4Q217.9 151.8 219.1 152Q220.3 152.3 221.6 152.5Q222.8 152.8 224 152.7Q225.3 152.6 226.5 152.2Q227.7 151.7 228.9 151.6Q230.2 151.5 230.4 151.6Q230.6 151.7 230.7 152Q230.8 152.2 230.7 152.4Q230.6 152.7 230.4 152.8Q230.2 152.9 228.9 153.4Q227.7 153.9 226.5 154.6Q225.3 155.3 224 155.6Q222.8 155.8 221.6 155.6Q220.3 155.4 219.1 155.1Q217.9 154.8 216.6 154.3Q215.4 153.8 214.2 153.5Q212.9 153.2 211.7 153.1Q210.5 152.9 210.2 152.8Q210 152.7 209.9 152.4Q209.8 152.2 209.9 152Q210 151.7 210.2 151.6Z"></path><path d="M184.7 176.8Q185.4 176.8 186.4 176.7Q187.3 176.6 188.6 176.5Q189.9 176.5 191.5 176.4Q193 176.4 194.5 176.3Q196.1 176.1 197.4 176.3Q198.8 176.5 199.9 177.1Q201.1 177.7 202.5 178.3Q203.9 178.9 205.6 179Q207.2 179 208.9 178.6Q210.6 178.1 212.2 177.6Q213.8 177.2 215.2 176.9Q216.6 176.6 217.6 176.7Q218.7 176.8 219.4 176.8Q220 176.9 220.4 177.5Q220.8 178 220.7 178.6Q220.7 179.3 220.1 179.7Q219.6 180.1 218.7 180.7Q217.9 181.2 216.6 181.8Q215.2 182.3 213.6 182.8Q212 183.4 210.2 184Q208.4 184.6 206.5 184.6Q204.6 184.6 202.8 184Q201.1 183.4 199.5 182.7Q198 182 196.4 181.7Q194.8 181.4 193.1 181.5Q191.4 181.5 189.9 181.5Q188.3 181.4 187.1 181.2Q185.9 181 185.1 180.5Q184.4 180.1 183.9 179.7Q183.4 179.2 183.3 178.6Q183.2 177.9 183.7 177.4Q184.1 176.9 184.7 176.8Z"></path><path d="M142 93.7Q142.2 86.4 142.9 81.7Q143.7 77.1 145.7 72.7Q147.7 68.3 150.7 64.6Q153.8 61 157.6 58.2Q161.4 55.5 165.8 53.8Q170.2 52.1 174.7 51.6Q179.3 51 185.8 51.1Q192.3 51.2 198.7 51.3Q205.2 51.3 209.8 51.7Q214.3 52.2 218.8 53.6Q223.3 55.1 227.3 57.8Q231.3 60.4 234.3 64.2Q237.4 68 239.3 72.5Q241.2 77 242.1 81.7Q243 86.4 243.7 94.2Q244.5 102 241.4 107.6Q238.4 113.3 228.3 114.2Q218.1 115.2 211.6 115.1Q205.1 115 198.7 115.1Q192.3 115.3 185.9 115.3Q179.4 115.3 173 115.2Q166.6 115.2 159.4 114.8Q152.1 114.4 147.5 111Q142.9 107.5 142.3 104.3Q141.7 101 142 93.7Z"></path><path fill="#efe8d6" d="M151.1 93.4Q151.1 87 151.4 83.1Q151.8 79.2 153 75.7Q154.3 72.1 156.5 69Q158.7 65.9 161.8 63.6Q164.8 61.3 168.3 59.9Q171.9 58.5 175.8 58.1Q179.7 57.7 186 57.9Q192.3 58.1 198.5 58.2Q204.8 58.3 208.6 58.8Q212.4 59.3 215.9 60.7Q219.3 62.1 222.2 64.4Q225.1 66.6 227.1 69.7Q229 72.8 229.9 76.3Q230.8 79.7 231 83.4Q231.2 87.1 231.4 92.8Q231.5 98.5 231.2 99.7Q230.8 101 224.2 101Q217.7 101.1 211.4 101Q205.1 100.9 198.7 100.9Q192.3 101 185.9 101Q179.4 101 173 101Q166.6 100.9 161.1 101.2Q155.6 101.5 153.7 101.1Q151.8 100.6 151.5 100.2Q151.2 99.8 151.1 93.4Z"></path><path d="M135.8 107.1Q136.2 101.3 139.7 97.9Q143.2 94.5 149.6 94.3Q155.9 94.1 161.9 94.1Q168 94.2 174 94.2Q180 94.1 186 94.1Q192.1 94.1 198.1 94.2Q204.1 94.2 210.1 94.2Q216.2 94.2 222.2 94.2Q228.2 94.2 234.7 94.1Q241.1 94.1 245.3 97.3Q249.5 100.6 250.3 107.3Q251.2 113.9 246.9 118.7Q242.7 123.6 235.5 123.9Q228.2 124.2 222.2 124.2Q216.2 124.1 210.1 124Q204.1 123.9 198.1 123.8Q192.1 123.8 186 123.7Q180 123.6 174 123.3Q168 123.1 161.9 122.8Q155.9 122.5 149.1 122Q142.3 121.5 138.8 117.2Q135.3 112.9 135.8 107.1Z"></path><path fill="#efe8d6" d="M191.9 96.7Q192.7 94.5 192.8 93.7Q193 92.9 193.2 93.7Q193.4 94.5 194.1 96.6Q194.9 98.7 195.1 100.4Q195.3 102.1 195.5 102.9Q195.7 103.6 196.4 103.8Q197.2 104 198.8 104.6Q200.4 105.1 202 105.6Q203.6 106 204.4 106.2Q205.2 106.4 204.4 106.6Q203.7 106.9 201.9 107.3Q200.2 107.6 198.3 108.3Q196.4 109 195.7 109.3Q194.9 109.5 194.7 110.3Q194.5 111.1 194.2 112.9Q193.8 114.7 193.4 116.5Q193 118.2 192.9 119Q192.7 119.8 192.5 119Q192.3 118.2 191.8 116.4Q191.3 114.5 190.9 112.8Q190.5 111 190.3 110.3Q190.1 109.5 189.3 109.3Q188.5 109.1 186.8 108.6Q185.1 108.2 183.4 107.7Q181.7 107.3 180.9 107.1Q180.1 106.9 180.9 106.7Q181.7 106.5 183.5 106.2Q185.3 105.8 187.1 105.2Q188.9 104.7 189.7 104.5Q190.4 104.3 190.6 103.5Q190.8 102.7 191 100.9Q191.2 99 191.9 96.7Z"></path><path d="M228.9 110.4Q228.6 105.9 230.1 102.8Q231.6 99.7 237.8 99.4Q243.9 99.2 247.6 99.6Q251.2 100 254.9 100.3Q258.5 100.7 262.1 101.1Q265.7 101.5 269.3 101.9Q272.9 102.3 276.7 102.5Q280.4 102.7 283.6 103.9Q286.8 105.2 287.1 111.5Q287.4 117.8 285 121.7Q282.7 125.6 275.6 126.4Q268.6 127.2 264.8 126.9Q260.9 126.6 257.2 126.2Q253.4 125.8 249.7 125.4Q245.9 125 241.8 124.7Q237.7 124.4 234.2 122.4Q230.8 120.4 230 117.6Q229.2 114.8 228.9 110.4Z"></path><path fill="#efe8d6" d="M236.4 109.9Q235.8 106.8 235.6 105.8Q235.3 104.7 239.5 105.2Q243.7 105.6 247.3 105.9Q250.8 106.1 254.4 106.3Q258.1 106.5 261.7 106.8Q265.3 107.1 268.9 107.5Q272.5 107.8 275.6 108.1Q278.8 108.3 279.3 108.5Q279.9 108.7 279.1 111.6Q278.3 114.4 277.9 115.4Q277.6 116.5 273.1 116.7Q268.6 116.9 265 116.6Q261.3 116.3 257.6 115.8Q253.8 115.3 250.1 114.8Q246.4 114.3 243.2 114.2Q240.1 114 238.9 114.1Q237.7 114.1 237.3 113.6Q237 113.1 236.4 109.9Z"></path></g><g id="klemmbrett"><path d="M153.7 221Q158.1 222.6 157.7 227.1Q157.3 231.7 156.1 233.5Q154.9 235.3 155.1 236.8Q155.3 238.2 157.2 240Q159.1 241.7 161.9 245.2Q164.7 248.7 164.9 252.6Q165 256.5 162.6 259.7Q160.2 262.9 156.3 263.9Q152.4 264.9 149 263.5Q145.7 262.1 143.8 260.6Q141.9 259 140.4 257.9Q139 256.7 137.3 255.1Q135.6 253.5 134 251.4Q132.3 249.2 131 246.2Q129.8 243.1 129.6 239.9Q129.5 236.7 129.9 234.1Q130.3 231.5 130.9 229.3Q131.5 227.1 132 225.2Q132.6 223.3 134 220.2Q135.5 217.1 139.5 217.5Q143.5 217.9 146.4 218.7Q149.3 219.4 153.7 221Z"></path><path fill="#efe8d6" d="M149 226.1Q150.7 226.4 149.3 227.5Q147.8 228.5 146.9 232.2Q145.9 235.9 147.7 239.4Q149.5 242.9 151.9 244.7Q154.2 246.6 155.8 248.8Q157.4 250.9 157.2 252.1Q156.9 253.3 156.2 254.3Q155.4 255.3 154.2 255.8Q152.9 256.2 151.3 255.6Q149.7 254.9 148.2 253.7Q146.8 252.6 145.5 251.4Q144.2 250.3 142.8 249.1Q141.5 247.8 140.2 246.4Q138.9 244.9 137.9 243Q136.8 241.1 136.5 239Q136.2 236.8 136.4 234.8Q136.6 232.7 137 230.7Q137.5 228.8 138 227Q138.5 225.2 138.3 223.7Q138.1 222.1 139.9 223.2Q141.6 224.2 144.5 224.9Q147.3 225.7 149 226.1Z"></path><path d="M75.3 218.4Q74.4 212.1 76.5 207.5Q78.6 202.9 87.7 200.2Q96.8 197.5 103.5 196.3Q110.1 195.2 116.7 194.3Q123.3 193.4 130.6 192.2Q137.8 191 143.1 192.9Q148.5 194.7 150.9 203.5Q153.4 212.3 154.1 218.1Q154.8 224 155.6 229.7Q156.4 235.4 157.4 241.1Q158.4 246.8 159.3 252.5Q160.2 258.2 161 263.9Q161.9 269.6 162.9 276.1Q164 282.6 161.8 288Q159.6 293.4 149.9 296.1Q140.2 298.7 133.5 299.9Q126.9 301.1 120.3 302.2Q113.7 303.2 106.2 304.2Q98.7 305.1 93.7 302.3Q88.6 299.5 86.8 290.7Q84.9 281.9 83.9 276.2Q82.9 270.4 82 264.7Q81.1 259 80.5 253.2Q80 247.5 79.2 241.8Q78.4 236 77.4 230.4Q76.3 224.7 75.3 218.4Z"></path><path fill="#efe8d6" d="M81.7 218.2Q80.5 212.8 81.4 209.9Q82.2 207 90.1 205.4Q98 203.7 104.6 203Q111.2 202.3 117.8 201.5Q124.5 200.8 130.7 199.7Q137 198.7 139.2 199.7Q141.4 200.8 142.5 207.5Q143.6 214.1 144.5 219.8Q145.4 225.4 146.2 231.2Q147.1 236.9 148.1 242.6Q149.1 248.2 150 253.9Q150.8 259.7 151.7 265.4Q152.5 271.1 153.3 276.3Q154 281.5 153.2 283.3Q152.5 285.1 145.3 286.2Q138 287.2 131.5 288.1Q125 288.9 118.4 289.8Q111.8 290.6 105.9 291.9Q100 293.2 98 293.2Q96 293.2 94.1 286.8Q92.3 280.5 91.1 274.9Q89.8 269.3 88.9 263.6Q88 257.9 87.4 252.2Q86.8 246.4 86 240.7Q85.1 235 84 229.3Q82.9 223.6 81.7 218.2Z"></path><path d="M90.1 222.6Q89.3 217 97.2 214.2Q105.1 211.4 111.9 210.2Q118.7 209.1 125.5 208Q132.3 207 135.2 213.8Q138.1 220.6 139.3 226.3Q140.6 232 141.5 237.6Q142.5 243.3 143.4 249Q144.2 254.7 145.2 260.4Q146.2 266 147.4 272.5Q148.6 278.9 139.9 282.5Q131.2 286.2 124.3 287.4Q117.3 288.6 109.5 289.3Q101.7 290 98.9 282.1Q96.1 274.2 95.4 268.3Q94.8 262.5 94.3 256.8Q93.8 251 93.2 245.3Q92.6 239.6 91.7 233.9Q90.9 228.2 90.1 222.6Z"></path><path fill="#efe8d6" d="M92.9 223.1Q91.7 218.5 98.7 216.3Q105.8 214.1 112.5 213.1Q119.2 212.1 124.8 211.2Q130.4 210.3 131.9 216.1Q133.3 221.9 134.5 227.3Q135.6 232.7 136.5 238.4Q137.5 244.1 138.4 249.8Q139.2 255.5 140.2 261.2Q141.2 266.8 142.5 271.4Q143.7 275.9 136.8 278.4Q129.8 280.8 123.2 282Q116.5 283.3 110.2 284.7Q104 286 101.8 279.6Q99.6 273.2 98.9 267.6Q98.3 262 97.7 256.2Q97.2 250.5 96.6 244.8Q95.9 239 95 233.3Q94.2 227.6 92.9 223.1Z"></path><path d="M93.4 201.5Q93.2 199 94.6 196.3Q96 193.6 100 192.7Q104.1 191.8 106.6 191.6Q109.1 191.4 111.5 191.1Q114 190.8 116.6 190.3Q119.3 189.9 122 190.7Q124.8 191.4 126.2 194.8Q127.6 198.3 128.1 200.7Q128.6 203.2 127.4 206.4Q126.2 209.6 121.9 211Q117.6 212.4 115.1 213Q112.6 213.6 110.2 214.1Q107.8 214.6 104.7 215Q101.6 215.4 98.5 213.6Q95.3 211.8 94.4 207.9Q93.6 204 93.4 201.5Z"></path><path d="M170.8 236.3Q172.3 236.3 174.1 237.1Q175.9 237.9 176.6 239.9Q177.4 241.9 176.4 243.7Q175.5 245.5 173.8 246.1Q172.1 246.6 170.7 246.6Q169.3 246.6 168.1 246.7Q166.8 246.8 165.6 247Q164.3 247.1 163.1 247.3Q161.8 247.4 160.3 247.6Q158.8 247.7 157 246.9Q155.1 246.1 154.3 244Q153.5 241.9 154.4 240Q155.4 238.1 157.2 237.4Q159 236.8 160.4 236.9Q161.8 236.9 163.1 236.9Q164.3 236.9 165.6 236.8Q166.8 236.7 168.1 236.6Q169.3 236.4 170.8 236.3Z"></path><path fill="#efe8d6" d="M170.5 239.4Q171.6 239.4 172.4 240Q173.2 240.6 172.9 241.2Q172.6 241.9 172.1 241.8Q171.7 241.7 171.4 241.6Q171 241.4 170.2 241.4Q169.3 241.4 168.1 241.5Q166.8 241.6 165.6 241.7Q164.3 241.9 163.1 242Q161.8 242.2 160.8 242.5Q159.8 242.8 159 242.9Q158.2 243 157.5 242.5Q156.9 241.9 157.2 241Q157.5 240.1 158.5 239.9Q159.6 239.7 160.7 239.9Q161.8 240 163.1 240Q164.3 240 165.6 239.9Q166.8 239.8 168.1 239.6Q169.3 239.5 170.5 239.4Z"></path><path d="M170.9 244.7Q172.2 244.6 173.8 245.1Q175.3 245.5 176.3 247.1Q177.3 248.7 176.7 250.7Q176 252.6 174.3 253.4Q172.5 254.1 171 254Q169.6 253.9 168.4 253.8Q167.1 253.7 165.8 253.6Q164.6 253.6 163.3 253.7Q162 253.7 160.6 253.8Q159.2 254 157.5 253.2Q155.8 252.5 155.2 250.6Q154.6 248.7 155.6 247.2Q156.5 245.7 158 245.3Q159.5 244.9 160.8 245Q162 245.1 163.3 245Q164.6 245 165.8 244.9Q167.1 244.9 168.4 244.8Q169.6 244.7 170.9 244.7Z"></path><path fill="#efe8d6" d="M170.6 247.7Q171.6 247.7 172.1 248Q172.7 248.2 172.6 248.5Q172.5 248.7 172.4 248.8Q172.3 248.9 171.9 248.9Q171.4 248.9 170.5 248.7Q169.6 248.6 168.4 248.5Q167.1 248.4 165.8 248.3Q164.6 248.3 163.3 248.3Q162 248.4 161.1 248.6Q160.2 248.8 159.7 249Q159.1 249.1 158.7 248.9Q158.4 248.7 158.6 248.4Q158.8 248 159.4 248Q160.1 248.1 161.1 248.2Q162 248.4 163.3 248.3Q164.6 248.2 165.8 248.1Q167.1 248 168.4 247.9Q169.6 247.8 170.6 247.7Z"></path><path d="M170.5 251.5Q171.8 251.4 173.3 251.8Q174.9 252.2 175.9 253.8Q176.9 255.3 176.3 257.3Q175.7 259.3 174 260.2Q172.2 261.1 170.7 261.3Q169.3 261.6 168 261.8Q166.7 262 165.5 262.1Q164.2 262.1 162.9 262Q161.7 261.8 160.2 261.5Q158.7 261.1 157.2 259.9Q155.7 258.8 155.4 257Q155 255.3 155.8 254Q156.5 252.7 157.8 252.2Q159.2 251.7 160.4 251.7Q161.7 251.7 162.9 251.7Q164.2 251.7 165.5 251.6Q166.7 251.6 168 251.6Q169.3 251.5 170.5 251.5Z"></path><path fill="#efe8d6" d="M170.2 254.9Q171.1 254.9 171.5 255.1Q171.8 255.3 171.7 255.3Q171.6 255.3 171.6 255.2Q171.6 255.2 171.4 255.4Q171.1 255.5 170.2 255.8Q169.3 256 168 256.3Q166.7 256.5 165.5 256.6Q164.2 256.6 162.9 256.5Q161.7 256.4 160.7 256.2Q159.7 256 159.3 255.8Q158.9 255.6 158.7 255.4Q158.5 255.3 158.6 255.1Q158.6 254.8 159.2 254.8Q159.8 254.7 160.7 254.8Q161.7 255 162.9 255Q164.2 255 165.5 255Q166.7 254.9 168 254.9Q169.3 254.9 170.2 254.9Z"></path><path d="M170.8 255.8Q172.3 255.7 174.4 256.5Q176.4 257.4 177.5 259.7Q178.6 262 177.7 264.5Q176.8 266.9 174.6 267.9Q172.5 269 170.9 269Q169.3 269 168 269Q166.8 268.9 165.5 268.9Q164.2 268.8 163 268.8Q161.7 268.9 160.1 268.8Q158.6 268.8 156.5 267.8Q154.5 266.7 153.8 264.3Q153.1 262 154.2 260Q155.3 258.1 157.1 257.4Q158.9 256.7 160.3 256.7Q161.7 256.7 163 256.7Q164.2 256.6 165.5 256.5Q166.8 256.3 168 256.1Q169.3 255.9 170.8 255.8Z"></path><path fill="#efe8d6" d="M170.5 259Q171.7 258.9 172.7 259.6Q173.6 260.2 173.6 261.1Q173.6 262 173.1 262.4Q172.7 262.8 172 263Q171.3 263.2 170.3 263.1Q169.3 263.1 168 263Q166.8 263 165.5 262.9Q164.2 262.9 163 262.9Q161.7 262.9 160.7 263Q159.7 263.1 158.9 263.1Q158.1 263.1 157.7 262.5Q157.2 262 157.5 261.2Q157.7 260.5 158.6 260.3Q159.5 260.1 160.6 260.2Q161.7 260.2 163 260.1Q164.2 260 165.5 259.8Q166.8 259.5 168 259.3Q169.3 259.1 170.5 259Z"></path><path d="M143.3 248.5Q143.2 245.6 143.7 243.7Q144.2 241.9 145.3 240.3Q146.5 238.7 148.1 237.6Q149.8 236.5 151.6 236Q153.4 235.6 156 235.5Q158.6 235.4 160.6 235.6Q162.5 235.8 164.5 236.8Q166.4 237.8 167.8 239.6Q169.3 241.3 169.9 243.4Q170.4 245.4 170.3 248.4Q170.2 251.3 169.9 254.2Q169.5 257.2 169 259.1Q168.5 261 167.2 262.7Q165.9 264.4 164.2 265.5Q162.4 266.5 160.5 266.9Q158.6 267.2 156 267.2Q153.4 267.3 151.5 266.9Q149.7 266.5 148.1 265.3Q146.4 264.1 145.4 262.4Q144.4 260.7 144.1 258.9Q143.7 257 143.5 254.2Q143.3 251.3 143.3 248.5Z"></path><path fill="#efe8d6" d="M148.3 248.7Q148.1 246.1 148.3 244.9Q148.4 243.6 149 242.7Q149.5 241.7 150.5 241.1Q151.4 240.4 152.7 240.2Q153.9 240 156 240Q158.2 240 159.4 240.2Q160.6 240.4 161.5 241.1Q162.4 241.8 162.9 242.8Q163.4 243.7 163.5 244.9Q163.6 246.1 163.4 248.7Q163.1 251.3 162.6 253.9Q162 256.4 161.5 257.2Q161 257.9 160.5 258.2Q159.9 258.4 159.5 258.5Q159.1 258.6 158.5 258.7Q157.8 258.8 156 259Q154.2 259.1 153.4 259.2Q152.6 259.3 152 259.3Q151.3 259.2 150.7 258.8Q150 258.4 149.6 257.4Q149.1 256.5 148.8 253.9Q148.5 251.3 148.3 248.7Z"></path><path d="M161.4 230.8Q162.8 230.4 164.7 230.4Q166.5 230.4 168.1 231.7Q169.8 233.1 169.9 235.5Q170.1 237.9 168.6 239.6Q167.1 241.3 165.5 242Q163.9 242.6 162.6 243.1Q161.2 243.6 159.9 244.1Q158.6 244.6 157.3 245.2Q156 245.8 154.3 246.6Q152.7 247.3 150.1 247.2Q147.4 247 145.5 244.7Q143.7 242.3 144.1 239.5Q144.5 236.7 146.3 235.3Q148.1 233.8 149.8 233.4Q151.5 233 152.9 232.7Q154.3 232.5 155.7 232.2Q157.1 231.9 158.5 231.6Q159.9 231.3 161.4 230.8Z"></path><path fill="#efe8d6" d="M162 233.6Q163.2 233.2 164.1 233.3Q165.1 233.4 165.3 234Q165.6 234.6 165.4 235.1Q165.2 235.5 164.6 235.9Q164.1 236.3 163 236.6Q161.9 237 160.6 237.4Q159.2 237.9 157.9 238.4Q156.6 238.8 155.2 239.4Q153.9 240 152.9 240.6Q151.8 241.2 150.9 241.5Q149.9 241.8 149 241.3Q148 240.8 147.9 239.6Q147.8 238.4 148.9 237.5Q149.9 236.7 151.3 236.5Q152.6 236.2 154 235.8Q155.4 235.4 156.7 235.1Q158.1 234.7 159.5 234.3Q160.8 233.9 162 233.6Z"></path></g><g id="zirkel"><path d="M241.1 213.8Q245.1 209.4 250.3 212.6Q255.5 215.9 257.9 217.9Q260.3 220 262.7 221.8Q265.1 223.7 266.8 225Q268.5 226.3 271 226.7Q273.5 227.1 276.1 225.9Q278.6 224.6 281.8 223.1Q285 221.5 288.7 221.2Q292.3 220.8 295.9 222.8Q299.5 224.8 301.2 228.6Q302.9 232.5 301.9 236.6Q300.8 240.6 297.9 243Q295 245.3 292.1 246.4Q289.2 247.5 284.1 249Q279 250.5 275.6 250.8Q272.1 251.1 268.4 250.5Q264.7 249.9 261.2 248.4Q257.8 246.9 254.5 245.1Q251.3 243.2 248.2 241.2Q245.1 239.2 242.3 237.2Q239.5 235.3 236.9 232.6Q234.3 230 235.7 224.1Q237.1 218.3 241.1 213.8Z"></path><path fill="#efe8d6" d="M244 218Q245.7 215.1 248.3 218.2Q251 221.3 253.5 223.4Q255.9 225.4 258.5 227.3Q261.1 229.2 263.7 230.6Q266.3 232 270.2 232.2Q274.1 232.5 277.4 230.9Q280.6 229.3 283.5 227.9Q286.3 226.5 288.6 226.5Q291 226.4 292.6 227.8Q294.2 229.3 294.5 231.2Q294.7 233.1 293.9 234.5Q293.1 235.9 291.6 236.7Q290 237.5 287.8 238.3Q285.5 239.1 281.1 240.5Q276.6 241.9 274.2 242.1Q271.9 242.4 269.3 242.1Q266.7 241.9 264.1 240.9Q261.5 239.9 258.6 238.3Q255.8 236.7 252.9 234.8Q250 232.9 247.3 231Q244.6 229 242.7 228.4Q240.9 227.9 241.5 224.4Q242.2 220.8 244 218Z"></path><path d="M294 256.5Q300.2 258.2 298.6 263.5Q297 268.8 295.6 271.8Q294.2 274.9 292.8 278.2Q291.5 281.5 290.2 284.9Q289 288.3 287.8 291.4Q286.7 294.6 285.5 297.7Q284.4 300.8 283.1 304.2Q281.9 307.6 280.9 311.1Q279.8 314.5 278.9 317.7Q278 321 277.2 323.7Q276.4 326.5 274.5 330Q272.6 333.4 268.8 331.8Q265.1 330.2 265.9 326.7Q266.8 323.2 267.7 320.5Q268.6 317.8 269.6 314.6Q270.5 311.4 271.5 307.9Q272.4 304.4 273.4 301Q274.4 297.5 275.4 294.3Q276.4 291.1 277.4 288Q278.4 284.8 279.5 281.3Q280.6 277.9 281.7 274.5Q282.8 271.1 283.8 267.9Q284.8 264.7 285.6 262Q286.3 259.2 287.1 257Q287.8 254.8 294 256.5Z"></path><path fill="#efe8d6" d="M292.8 258.6Q296.6 259.9 294.5 263.5Q292.3 267.1 290.9 270.1Q289.5 273.2 288 276.5Q286.6 279.8 285.3 283.1Q283.9 286.5 282.7 289.6Q281.5 292.7 280.2 295.8Q279 298.9 277.8 302.3Q276.5 305.6 275.4 309.1Q274.4 312.5 273.5 315.8Q272.6 319 271.8 321.6Q271 324.2 270.6 326Q270.3 327.8 269.7 327.8Q269.1 327.9 269.7 326Q270.4 324.1 271.3 321.5Q272.1 318.9 273.1 315.7Q274 312.5 275 309Q275.9 305.5 277 302.1Q278 298.6 278.9 295.4Q279.9 292.2 280.8 289Q281.8 285.8 282.9 282.4Q283.9 278.9 285 275.5Q286 272 286.9 268.8Q287.9 265.6 288.6 262.9Q289.3 260.1 289.2 258.7Q289.1 257.3 292.8 258.6Z"></path><path d="M293.5 255.8Q300.3 253.4 302.6 258.8Q304.9 264.2 305.8 267.5Q306.8 270.7 307.8 274.2Q308.9 277.6 310.1 281Q311.2 284.3 312.4 287.3Q313.5 290.3 314.6 293.1Q315.7 296 316.9 299Q318.1 302 319.2 305.1Q320.3 308.1 321.3 310.8Q322.3 313.6 323.9 318.6Q325.6 323.6 321.9 328.2Q318.1 332.7 314 328.5Q309.9 324.2 308.2 318.8Q306.4 313.3 305.3 310.2Q304.3 307.2 303.1 304.1Q302 301 300.8 298.1Q299.7 295.1 298.5 292.1Q297.3 289 295.9 285.7Q294.6 282.4 293.2 279Q291.9 275.6 290.7 272.4Q289.5 269.3 288.5 266.6Q287.5 263.9 287.1 261Q286.7 258.1 293.5 255.8Z"></path><path fill="#efe8d6" d="M294.2 258.6Q298.2 257.4 298.8 261.6Q299.5 265.9 300.5 269.1Q301.5 272.4 302.6 275.8Q303.7 279.2 304.9 282.6Q306.1 285.9 307.3 288.9Q308.5 291.9 309.7 294.8Q310.9 297.7 312.1 300.7Q313.3 303.7 314.4 306.7Q315.5 309.8 316.5 312.6Q317.5 315.3 318.7 319.1Q319.9 323 318.8 324.8Q317.7 326.6 315.9 324.1Q314.1 321.6 312.5 316.6Q310.8 311.5 309.8 308.5Q308.7 305.4 307.6 302.3Q306.5 299.2 305.3 296.3Q304.2 293.4 302.9 290.4Q301.7 287.4 300.4 284.1Q299.1 280.8 297.8 277.4Q296.4 274 295.2 270.8Q294 267.7 293.1 265Q292.1 262.3 291.2 261Q290.2 259.8 294.2 258.6Z"></path><path d="M296.5 190Q296.8 190.7 297.1 192.5Q297.4 194.3 297.4 196.1Q297.4 198 297.2 199.8Q297 201.6 296.7 203.4Q296.3 205.2 296.1 207Q295.8 208.8 295.7 210.6Q295.6 212.4 295.8 214.2Q296 216 296.4 217.8Q296.7 219.6 297.2 221.5Q297.8 223.3 298.2 225.1Q298.7 226.9 299.1 228.7Q299.4 230.5 299.4 232.3Q299.5 234.1 299.3 235.9Q299.1 237.7 299 239.5Q298.8 241.3 298.7 243.1Q298.6 245 298.3 246.8Q298.1 248.6 297.9 250.4Q297.6 252.2 297.2 254Q296.8 255.8 296.5 256.5Q296.2 257.1 295.6 257.4Q294.9 257.7 294.2 257.4Q293.5 257.1 293.3 256.5Q293 255.8 292.7 254Q292.4 252.2 292.3 250.4Q292.3 248.6 292.2 246.8Q292.2 245 292.1 243.1Q292 241.3 292.1 239.5Q292.1 237.7 292.1 235.9Q292.2 234.1 292.1 232.3Q292.1 230.5 291.8 228.7Q291.6 226.9 291.3 225.1Q291 223.3 290.6 221.5Q290.3 219.6 290.1 217.8Q289.9 216 289.9 214.2Q289.8 212.4 289.9 210.6Q290 208.8 290.3 207Q290.6 205.2 290.9 203.4Q291.3 201.6 291.5 199.8Q291.8 198 292 196.1Q292.2 194.3 292.6 192.5Q293 190.7 293.3 190Q293.5 189.4 294.2 189.1Q294.9 188.8 295.6 189.1Q296.2 189.4 296.5 190Z"></path><path d="M291.3 174.3Q293.6 173.7 296 174.1Q298.3 174.6 300.4 176Q302.4 177.3 303.9 179.5Q305.5 181.6 305.9 184.4Q306.4 187.2 305.2 190Q304.1 192.7 301.8 194.6Q299.5 196.5 296.5 197.1Q293.6 197.8 290.8 197Q287.9 196.3 285.7 194.3Q283.6 192.4 282.6 189.7Q281.7 187.1 282.1 184.4Q282.6 181.8 284 179.8Q285.3 177.7 287.2 176.3Q289.1 174.9 291.3 174.3Z"></path><path fill="#efe8d6" d="M292 177.3Q293.6 176.9 295.2 177.5Q296.7 178 297.7 179.1Q298.8 180.2 299.4 181.6Q300 182.9 300 184.3Q300 185.8 299.4 187.1Q298.7 188.4 297.5 189.2Q296.4 190.1 295 190.5Q293.6 190.8 292.2 190.6Q290.7 190.4 289.4 189.6Q288.1 188.7 287.4 187.3Q286.6 186 286.6 184.3Q286.6 182.7 287.4 181.3Q288.1 179.9 289.3 178.8Q290.4 177.7 292 177.3Z"></path><path d="M291.2 248Q293.5 247.6 295.7 248.1Q297.9 248.5 299.8 249.9Q301.6 251.3 302.6 253.4Q303.6 255.5 303.5 257.8Q303.5 260.1 302.4 262.1Q301.3 264.1 299.7 265.7Q298 267.2 295.7 268Q293.5 268.8 291 268.4Q288.5 268.1 286.4 266.6Q284.4 265.1 283.1 262.8Q281.9 260.5 282 257.9Q282 255.2 283.4 253.1Q284.8 251 286.9 249.7Q289 248.5 291.2 248Z"></path><path fill="#efe8d6" d="M292 251.8Q293.5 251.7 294.7 252.1Q296 252.6 296.8 253.6Q297.6 254.6 297.8 255.7Q298.1 256.8 297.7 257.8Q297.4 258.7 296.8 259.4Q296.2 260.1 295.7 260.8Q295.2 261.5 294.3 262.2Q293.5 262.9 292.1 263.2Q290.7 263.5 289.3 262.9Q287.8 262.3 286.8 261Q285.7 259.6 285.6 257.8Q285.6 256 286.6 254.6Q287.6 253.2 289.1 252.5Q290.6 251.8 292 251.8Z"></path><path d="M292.8 255.7Q293.3 255.6 294.5 255.7Q295.6 255.9 296.2 257.1Q296.7 258.3 295.6 259.2Q294.6 260.1 293.7 259.4Q292.7 258.7 292.4 258.3Q292.1 257.8 291.9 257.1Q291.8 256.4 292.1 256.1Q292.4 255.8 292.8 255.7Z"></path><path d="M306.7 214.4Q308.1 214.5 309.9 215.1Q311.7 215.7 312.6 217.7Q313.6 219.7 312.8 221.7Q311.9 223.8 310 224.5Q308.1 225.2 306.7 225.3Q305.2 225.3 304 225.5Q302.7 225.6 301.5 225.7Q300.2 225.9 298.9 226Q297.7 226.1 296.1 226.1Q294.6 226.1 292.6 225.2Q290.6 224.2 289.8 221.9Q289 219.7 289.9 217.5Q290.8 215.3 292.7 214.3Q294.6 213.3 296.1 213.2Q297.7 213.1 298.9 213.2Q300.2 213.3 301.5 213.5Q302.7 213.8 304 214Q305.2 214.3 306.7 214.4Z"></path><path fill="#efe8d6" d="M306.3 218.2Q307.3 218.4 307.8 218.7Q308.4 219 308.3 219.3Q308.2 219.7 308.1 219.7Q308 219.8 307.6 220Q307.2 220.2 306.2 220.4Q305.2 220.6 304 220.8Q302.7 221 301.5 221.1Q300.2 221.2 298.9 221.3Q297.7 221.3 296.6 221.4Q295.5 221.5 294.6 221.3Q293.6 221.2 293 220.4Q292.4 219.7 292.6 218.5Q292.8 217.3 294 216.8Q295.2 216.2 296.4 216.3Q297.7 216.4 298.9 216.5Q300.2 216.7 301.5 217.1Q302.7 217.4 304 217.7Q305.2 218 306.3 218.2Z"></path><path d="M306.3 223.3Q307.5 223.4 308.8 223.6Q310.2 223.8 311.3 225.1Q312.5 226.4 312.2 228.5Q311.9 230.7 310.1 232Q308.3 233.2 306.7 233.6Q305.1 233.9 303.9 234Q302.6 234.2 301.3 234.2Q300.1 234.3 298.8 234.3Q297.6 234.3 295.9 234.2Q294.2 234.1 292 232.8Q289.8 231.6 288.9 229Q288 226.4 289.2 224Q290.3 221.7 292.4 221Q294.6 220.3 296.1 220.6Q297.6 220.9 298.8 221.3Q300.1 221.7 301.3 222.1Q302.6 222.6 303.9 222.9Q305.1 223.2 306.3 223.3Z"></path><path fill="#efe8d6" d="M306 226.3Q306.9 226.4 307.2 226.5Q307.5 226.5 307.5 226.4Q307.5 226.4 307.7 226.4Q307.8 226.5 307.4 226.8Q307.1 227.2 306.1 227.4Q305.1 227.6 303.9 227.7Q302.6 227.8 301.3 227.9Q300.1 228.1 298.8 228.2Q297.6 228.3 296.4 228.6Q295.3 228.8 294.1 228.7Q292.8 228.6 292 227.5Q291.2 226.4 291.7 224.9Q292.2 223.5 293.6 223.2Q295.1 222.9 296.3 223.3Q297.6 223.8 298.8 224.2Q300.1 224.6 301.3 225Q302.6 225.5 303.9 225.8Q305.1 226.1 306 226.3Z"></path><path d="M306.4 229Q307.7 229 309.3 229.4Q311 229.8 312.3 231.5Q313.6 233.3 313.1 235.8Q312.6 238.3 310.5 239.6Q308.4 241 306.7 241.2Q305 241.4 303.8 241.5Q302.5 241.5 301.3 241.4Q300 241.3 298.7 241.2Q297.5 241.1 295.8 240.9Q294.2 240.7 292.2 239.4Q290.1 238.1 289.5 235.7Q288.9 233.3 289.9 231.2Q290.9 229.2 292.7 228.4Q294.5 227.6 296 227.7Q297.5 227.8 298.7 228Q300 228.2 301.3 228.4Q302.5 228.6 303.8 228.8Q305 229 306.4 229Z"></path><path fill="#efe8d6" d="M306 232.5Q307 232.6 307.5 232.7Q308 232.9 308.1 233.1Q308.3 233.3 308.3 233.7Q308.4 234.1 307.8 234.7Q307.2 235.3 306.1 235.5Q305 235.8 303.8 235.8Q302.5 235.8 301.3 235.7Q300 235.7 298.7 235.5Q297.5 235.4 296.4 235.3Q295.3 235.2 294.5 234.9Q293.6 234.6 293.2 233.9Q292.8 233.3 293.1 232.4Q293.3 231.6 294.2 231.3Q295.2 231 296.3 231.1Q297.5 231.3 298.7 231.5Q300 231.7 301.3 231.9Q302.5 232.1 303.8 232.2Q305 232.4 306 232.5Z"></path><path d="M306.2 236.1Q307.5 236.2 309.1 236.6Q310.6 237.1 311.5 238.7Q312.4 240.2 311.9 242.1Q311.3 244.1 309.6 244.9Q307.8 245.8 306.4 245.9Q304.9 246 303.7 246Q302.4 246 301.1 246.1Q299.9 246.1 298.6 246.2Q297.4 246.3 295.9 246.3Q294.3 246.4 292.4 245.4Q290.6 244.5 289.8 242.4Q289.1 240.2 290 238.2Q290.9 236.3 292.7 235.5Q294.5 234.6 295.9 234.7Q297.4 234.8 298.6 235Q299.9 235.3 301.1 235.5Q302.4 235.7 303.7 235.9Q304.9 236.1 306.2 236.1Z"></path><path fill="#efe8d6" d="M305.9 239.5Q306.9 239.6 307.2 239.8Q307.6 240 307.5 240.1Q307.3 240.2 307.3 240.1Q307.3 240.1 307 240.2Q306.8 240.4 305.8 240.5Q304.9 240.6 303.7 240.6Q302.4 240.6 301.1 240.7Q299.9 240.7 298.6 240.7Q297.4 240.7 296.4 240.8Q295.4 240.9 294.8 240.9Q294.1 240.9 293.7 240.6Q293.2 240.2 293.3 239.5Q293.3 238.7 294.2 238.4Q295.1 238.1 296.2 238.2Q297.4 238.4 298.6 238.6Q299.9 238.8 301.1 239Q302.4 239.2 303.7 239.3Q304.9 239.4 305.9 239.5Z"></path><path d="M279.6 227.2Q279.8 224.3 280.2 222.6Q280.6 220.8 281.7 219.3Q282.8 217.8 284.3 216.7Q285.8 215.6 287.6 215.1Q289.3 214.6 291.9 214.3Q294.5 214.1 296.5 214.3Q298.4 214.4 300.5 215.3Q302.5 216.2 304.1 218Q305.7 219.7 306.4 221.9Q307.1 224 307.1 227Q307.1 230 307 233Q306.9 236 306.4 238.2Q306 240.4 304.6 242.4Q303.2 244.5 301.1 245.8Q299 247.1 296.9 247.4Q294.7 247.8 291.9 247.7Q289.1 247.5 287.1 247Q285 246.4 283.3 245Q281.5 243.6 280.4 241.6Q279.4 239.7 279.2 237.7Q279 235.8 279.2 232.9Q279.5 230 279.6 227.2Z"></path><path fill="#efe8d6" d="M285.2 227.4Q285.3 224.9 285.3 223.8Q285.4 222.8 285.8 222Q286.2 221.2 286.9 220.6Q287.7 220.1 288.8 219.9Q289.8 219.7 291.9 219.6Q294 219.5 295.1 219.7Q296.2 219.9 297 220.4Q297.7 221 298.2 221.8Q298.7 222.6 298.9 223.7Q299 224.8 299.1 227.4Q299.1 230 299.3 232.6Q299.4 235.2 299.2 236.4Q299 237.5 298.4 238.3Q297.9 239.1 297 239.7Q296.2 240.3 295.1 240.6Q294 240.8 291.9 240.7Q289.8 240.7 288.7 240.4Q287.6 240.2 286.8 239.7Q285.9 239.1 285.3 238.3Q284.8 237.5 284.6 236.4Q284.4 235.2 284.7 232.6Q285 230 285.2 227.4Z"></path><path d="M296.5 208.2Q298 207.6 300.1 207.5Q302.2 207.5 304.3 209Q306.3 210.6 306.6 213.6Q306.9 216.6 305.1 218.6Q303.2 220.7 301.5 221.4Q299.7 222.1 298.4 222.6Q297 223.1 295.7 223.5Q294.3 223.9 292.9 224.1Q291.4 224.4 289.6 224.6Q287.8 224.8 285.6 224.1Q283.3 223.5 282.2 221.5Q281.1 219.5 281.6 217.7Q282.1 215.9 283.4 214.9Q284.7 214 286.1 213.5Q287.4 213 288.7 212.3Q290 211.6 291.2 210.9Q292.5 210.2 293.7 209.5Q295 208.8 296.5 208.2Z"></path><path fill="#efe8d6" d="M297.2 211.2Q298.4 210.7 299.5 210.7Q300.6 210.7 301.3 211.4Q301.9 212.2 301.9 213.2Q301.9 214.2 301.1 214.9Q300.2 215.6 299 216.1Q297.7 216.6 296.4 217Q295.1 217.5 293.7 217.9Q292.3 218.3 290.9 218.5Q289.5 218.8 288.2 218.9Q287 219.1 286.3 218.9Q285.6 218.8 285.3 218.4Q285 218.1 285.1 217.7Q285.1 217.3 285.7 217Q286.3 216.7 287.4 216.4Q288.5 216 289.7 215.3Q291 214.6 292.2 213.8Q293.5 213.1 294.8 212.4Q296 211.7 297.2 211.2Z"></path></g></g></g></svg>